<?xml version="1.0" encoding="UTF-8"?>
<svg version="1.1" xmlns="http://www.w3.org/2000/svg" width="500" height="500">
<path d="M0 0 C4.08982473 2.02286479 7.6111527 4.66415377 11.2734375 7.37109375 C12.06999756 7.9530249 12.86655762 8.53495605 13.68725586 9.13452148 C16.09510212 10.89534756 18.49752394 12.66333025 20.8984375 14.43359375 C23.41873758 16.28848608 25.93961998 18.14258466 28.4609375 19.99609375 C29.06357422 20.43953125 29.66621094 20.88296875 30.28710938 21.33984375 C38.43579432 27.31957862 46.72208109 33.1069872 55 38.90576172 C64.17795326 45.33591483 73.25893673 51.87857154 82.2668457 58.54516602 C91.23981375 65.53377375 91.23981375 65.53377375 100.8984375 71.43359375 C100.8984375 72.09359375 100.8984375 72.75359375 100.8984375 73.43359375 C101.5996875 73.68109375 102.3009375 73.92859375 103.0234375 74.18359375 C106.29358298 75.60539613 109.0395595 77.30605663 111.8984375 79.43359375 C111.8984375 80.09359375 111.8984375 80.75359375 111.8984375 81.43359375 C112.56617188 81.64757812 113.23390625 81.8615625 113.921875 82.08203125 C117.89663759 83.88684471 121.0817455 86.39825002 124.5234375 89.05859375 C125.96049711 90.1529223 127.39799807 91.24667152 128.8359375 92.33984375 C129.88201172 93.13841797 129.88201172 93.13841797 130.94921875 93.953125 C137.92260147 99.24954193 145.08869845 104.28996678 152.2175293 109.3737793 C157.10086939 112.85831098 161.97150676 116.3602168 166.8359375 119.87109375 C167.59962646 120.42224854 168.36331543 120.97340332 169.15014648 121.54125977 C172.71674132 124.11934313 176.27643012 126.70577307 179.81640625 129.3203125 C180.74356445 130.00504639 180.74356445 130.00504639 181.68945312 130.70361328 C182.90079485 131.59857422 184.11174023 132.49407191 185.32226562 133.39013672 C188.63367086 135.82536202 191.98231763 138.18841916 195.38671875 140.4921875 C196.12905762 140.99476074 196.87139648 141.49733398 197.63623047 142.01513672 C199.07752303 142.98548974 200.52303739 143.94960793 201.97314453 144.90673828 C203.64920906 146.03291617 205.27919608 147.22714186 206.8984375 148.43359375 C206.8984375 149.09359375 206.8984375 149.75359375 206.8984375 150.43359375 C207.59513707 150.70499931 208.29183664 150.97640488 209.00964832 151.25603485 C209.96294875 151.64462929 210.91624918 152.03322372 211.8984375 152.43359375 C212.90876636 152.81656868 213.91909521 153.19954361 214.96004009 153.59412384 C218.89434537 155.68693936 221.65581395 157.52019747 223.8984375 161.43359375 C226.15375919 169.94095994 225.5111358 179.09213173 225.39042699 187.82642221 C225.35284876 191.49927942 225.38482812 195.17162903 225.40814209 198.84451294 C225.4430314 206.02913374 225.41486569 213.212185 225.36610559 220.39667016 C225.312209 228.76015348 225.32536799 237.12312874 225.34235611 245.48671943 C225.37079031 260.40186573 225.34508215 275.31640895 225.28588867 290.23144531 C225.22851463 304.71395003 225.1991966 319.1960889 225.20581055 333.67871094 C225.20621026 334.5718797 225.20660998 335.46504845 225.20702181 336.38528293 C225.20873394 339.97511649 225.21062463 343.56494989 225.21275659 347.15478322 C225.22866018 374.6247323 225.21882179 402.09488237 225.12466431 429.56469345 C225.11486673 432.45075761 225.10730834 435.33681354 225.10176659 438.22288895 C225.09405268 442.14353488 225.07831546 446.06412319 225.06147766 449.98474121 C225.06009601 451.14297378 225.05871437 452.30120635 225.05729085 453.49453688 C225.05138281 454.53599631 225.04547477 455.57745574 225.0393877 456.65047455 C225.03630031 457.55654497 225.03321293 458.46261539 225.03003198 459.39614248 C224.8984375 461.43359375 224.8984375 461.43359375 223.8984375 462.43359375 C221.4069103 462.53131687 218.94313242 462.56355193 216.45115662 462.55384827 C215.26768657 462.5551299 215.26768657 462.5551299 214.06030804 462.55643743 C211.39622123 462.55809464 208.73219632 462.55256696 206.06811523 462.54711914 C204.16651409 462.54683729 202.26491284 462.54699495 200.36331177 462.54756165 C195.18377466 462.54784972 190.00426049 462.54195138 184.82472873 462.53498769 C179.41815223 462.52875581 174.01157526 462.52815048 168.60499573 462.52696228 C158.35918459 462.52384847 148.11338407 462.51563442 137.86757761 462.50561279 C126.20635087 462.49445318 114.54512364 462.48894159 102.88389289 462.48391736 C78.88873385 462.47345185 54.89358936 462.45510575 30.8984375 462.43359375 C30.8984375 436.69359375 30.8984375 410.95359375 30.8984375 384.43359375 C2.5184375 384.43359375 -25.8615625 384.43359375 -55.1015625 384.43359375 C-55.1015625 332.95359375 -55.1015625 281.47359375 -55.1015625 228.43359375 C-35.1571875 228.41296875 -15.2128125 228.39234375 5.3359375 228.37109375 C11.64388428 228.36198975 17.95183105 228.35288574 24.45092773 228.34350586 C32.1270752 228.33898926 32.1270752 228.33898926 35.71546936 228.33815002 C38.23292721 228.33660991 40.7503843 228.3330836 43.26783752 228.32801819 C47.07106822 228.32074523 50.87425367 228.31968618 54.67749023 228.32006836 C55.80746398 228.31647025 56.93743773 228.31287214 58.1016531 228.309165 C59.11901074 228.3105425 60.13636839 228.31191999 61.18455505 228.31333923 C62.07592887 228.31241744 62.96730268 228.31149565 63.88568783 228.31054592 C65.8984375 228.43359375 65.8984375 228.43359375 66.8984375 229.43359375 C66.99428748 230.97712506 67.0203182 232.52504483 67.01869202 234.07154846 C67.02075401 235.57553696 67.02075401 235.57553696 67.02285767 237.10990906 C67.01926239 238.21905167 67.01566711 239.32819427 67.01196289 240.47094727 C67.01210892 241.63176819 67.01225494 242.79258911 67.0124054 243.98858643 C67.01170567 247.84657627 67.00391048 251.70451853 66.99609375 255.5625 C66.99422978 258.22908103 66.99275662 260.89565939 66.99180603 263.5622406 C66.98869298 269.87688255 66.98047994 276.19150726 66.97045654 282.5061416 C66.9592946 289.69345008 66.95378475 296.88075936 66.94876111 304.06807435 C66.9382973 318.85659085 66.91995214 333.64508883 66.8984375 348.43359375 C78.4484375 348.43359375 89.9984375 348.43359375 101.8984375 348.43359375 C101.94844912 331.17854232 101.96538876 313.9245385 101.92178345 296.66951466 C101.90259971 288.65767212 101.89833416 280.64634043 101.92919922 272.63452148 C101.95606397 265.65125861 101.95492685 258.66865741 101.92017841 251.68541926 C101.90275589 247.98763293 101.89934651 244.29103183 101.92947388 240.59330177 C101.96258708 236.46469431 101.933178 232.33879914 101.8984375 228.21020508 C101.91784897 226.98453323 101.93726044 225.75886139 101.95726013 224.49604797 C102.05870539 218.47563842 102.05870539 218.47563842 99.05078125 213.60782433 C96.88466125 212.22467806 96.88466125 212.22467806 94.61328125 211.27347851 C94.04738281 210.99631654 93.48148437 210.71915457 92.8984375 210.43359375 C92.8984375 209.77359375 92.8984375 209.11359375 92.8984375 208.43359375 C92.00125 208.17578125 91.1040625 207.91796875 90.1796875 207.65234375 C86.89827345 206.43353282 85.02966753 205.194228 82.3984375 202.93359375 C78.31878345 199.54926535 74.15347991 196.37781584 69.8359375 193.30859375 C69.24087402 192.88449219 68.64581055 192.46039063 68.03271484 192.0234375 C63.88990336 189.09023102 59.67936601 186.28202903 55.375 183.58984375 C54.88773437 183.20828125 54.40046875 182.82671875 53.8984375 182.43359375 C53.8984375 181.77359375 53.8984375 181.11359375 53.8984375 180.43359375 C53.16052979 180.16498535 52.42262207 179.89637695 51.66235352 179.61962891 C48.98366854 178.47016759 46.99095976 177.21029412 44.67578125 175.45703125 C43.89501221 174.87211914 43.11424316 174.28720703 42.30981445 173.68457031 C41.49343506 173.06549805 40.67705566 172.44642578 39.8359375 171.80859375 C33.31163294 166.91395559 26.7610014 162.23219757 19.85546875 157.88671875 C19.20964844 157.4071875 18.56382812 156.92765625 17.8984375 156.43359375 C17.8984375 155.77359375 17.8984375 155.11359375 17.8984375 154.43359375 C17.2075 154.211875 16.5165625 153.99015625 15.8046875 153.76171875 C11.55265981 151.81858782 8.21300433 148.76660332 4.71484375 145.71484375 C2.88361132 144.15127055 2.88361132 144.15127055 -0.1015625 142.43359375 C-4.39669503 143.1637005 -7.43830328 146.06986645 -10.7890625 148.74609375 C-16.31279599 153.08803556 -21.92113672 157.29865006 -27.6015625 161.43359375 C-28.36686279 161.99731689 -29.13216309 162.56104004 -29.9206543 163.1418457 C-33.5261997 165.75657243 -36.8066102 168.07011683 -41.1015625 169.43359375 C-41.1015625 170.09359375 -41.1015625 170.75359375 -41.1015625 171.43359375 C-43.36005715 173.12284928 -45.62534529 174.69457492 -47.9765625 176.24609375 C-49.43618731 177.22855273 -50.89446722 178.21301208 -52.3515625 179.19921875 C-53.12242187 179.72064453 -53.89328125 180.24207031 -54.6875 180.77929688 C-58.8312726 183.61892098 -62.90531577 186.55382395 -66.9765625 189.49609375 C-67.75499512 190.05594971 -68.53342773 190.61580566 -69.33544922 191.19262695 C-70.06006348 191.71687256 -70.78467773 192.24111816 -71.53125 192.78125 C-72.49393799 193.4774646 -72.49393799 193.4774646 -73.47607422 194.18774414 C-75.23435138 195.47899868 -75.23435138 195.47899868 -77.1015625 197.43359375 C-78.0915625 197.43359375 -79.0815625 197.43359375 -80.1015625 197.43359375 C-80.1015625 198.09359375 -80.1015625 198.75359375 -80.1015625 199.43359375 C-82.1960593 201.06789126 -84.27938341 202.57526609 -86.4765625 204.05859375 C-87.38148438 204.68894531 -87.38148438 204.68894531 -88.3046875 205.33203125 C-92.83619115 208.43359375 -92.83619115 208.43359375 -95.1015625 208.43359375 C-95.1015625 209.09359375 -95.1015625 209.75359375 -95.1015625 210.43359375 C-96.0915625 211.09359375 -97.0815625 211.75359375 -98.1015625 212.43359375 C-98.55662891 214.34542079 -98.55662891 214.34542079 -98.48632336 216.58403206 C-98.4957799 217.45886305 -98.50523644 218.33369404 -98.51497954 219.23503506 C-98.50770818 220.68540215 -98.50770818 220.68540215 -98.50028992 222.16506958 C-98.50693674 223.18766652 -98.51358357 224.21026346 -98.52043182 225.26384819 C-98.53918053 228.7126192 -98.53644854 232.1610469 -98.53393555 235.60986328 C-98.54294545 238.07318619 -98.55327075 240.53650458 -98.56481934 242.99981689 C-98.58676114 248.31457736 -98.59949799 253.62923937 -98.60394859 258.94403458 C-98.61039923 266.62837069 -98.63331732 274.31258775 -98.66029189 281.99687599 C-98.70360431 294.46323263 -98.73354557 306.92958429 -98.75512695 319.39599609 C-98.77612333 331.50800032 -98.80342094 343.61996339 -98.83911133 355.73193359 C-98.84132484 356.48577335 -98.84353835 357.23961312 -98.84581894 358.01629651 C-98.86317862 363.91156822 -98.8809045 369.80683882 -98.89874613 375.7021091 C-98.98614784 404.61257847 -99.04159924 433.5230293 -99.1015625 462.43359375 C-141.3415625 462.43359375 -183.5815625 462.43359375 -227.1015625 462.43359375 C-227.30307767 411.97867302 -227.30307767 411.97867302 -227.34570312 390.87304688 C-227.37539803 376.28677607 -227.41035028 361.70064943 -227.47875977 347.11450195 C-227.52855329 336.49256462 -227.56084372 325.87074397 -227.57200497 315.24869317 C-227.57853054 309.62292201 -227.59389578 303.99748473 -227.63021278 298.37182045 C-227.66410802 293.07849697 -227.67462844 287.78564543 -227.66710091 282.49222374 C-227.66847834 280.5479412 -227.6784492 278.60364315 -227.69758987 276.65945435 C-227.72242705 274.00690972 -227.7165023 271.35615251 -227.70283508 268.7035675 C-227.71739929 267.93216016 -227.7319635 267.16075281 -227.74696904 266.36596948 C-227.69190337 262.41880989 -227.28521371 260.65856178 -224.75734234 257.56198406 C-221.77850157 255.17468684 -218.74415421 252.91022767 -215.6015625 250.74609375 C-210.82087843 247.3977866 -206.13715425 243.96593997 -201.5390625 240.37109375 C-196.31269386 236.29929612 -190.93497666 232.50627876 -185.46484375 228.765625 C-181.25853391 225.87139774 -177.15711443 222.83785189 -173.04833984 219.80761719 C-167.24324001 215.52830222 -161.40143908 211.30117714 -155.5480957 207.08813477 C-152.21387894 204.68716487 -148.8844166 202.28194691 -145.5859375 199.83203125 C-144.10867187 198.73761719 -144.10867187 198.73761719 -142.6015625 197.62109375 C-141.76625 196.99589844 -140.9309375 196.37070313 -140.0703125 195.7265625 C-138.1015625 194.43359375 -138.1015625 194.43359375 -136.1015625 194.43359375 C-136.11266556 193.22947342 -136.12376862 192.02535309 -136.13520813 190.78474426 C-136.23654124 179.44023755 -136.31150751 168.09582258 -136.36062336 156.75096607 C-136.38672327 150.91833963 -136.42212941 145.08607837 -136.47875977 139.25366211 C-136.53306414 133.62561641 -136.56298006 127.99792209 -136.57594872 122.36963463 C-136.58519132 120.22178299 -136.60324001 118.07395071 -136.63021278 115.92624855 C-136.66648141 112.91891465 -136.67150866 109.91303479 -136.66918945 106.90551758 C-136.68716583 106.01647232 -136.70514221 105.12742706 -136.72366333 104.21144104 C-136.68642966 99.7528926 -136.57072877 98.01474069 -133.67791748 94.43147278 C-132.40262177 93.44252266 -132.40262177 93.44252266 -131.1015625 92.43359375 C-130.51109131 91.95905762 -129.92062012 91.48452148 -129.31225586 90.99560547 C-128.77737549 90.62193848 -128.24249512 90.24827148 -127.69140625 89.86328125 C-127.09392578 89.44175781 -126.49644531 89.02023438 -125.88085938 88.5859375 C-125.27306641 88.16441406 -124.66527344 87.74289063 -124.0390625 87.30859375 C-122.8187523 86.4521906 -121.59869352 85.59542906 -120.37890625 84.73828125 C-119.81026855 84.3422168 -119.24163086 83.94615234 -118.65576172 83.53808594 C-117.34183527 82.60434367 -116.06290561 81.62164877 -114.79296875 80.62890625 C-113.1015625 79.43359375 -113.1015625 79.43359375 -111.1015625 79.43359375 C-111.1015625 78.77359375 -111.1015625 78.11359375 -111.1015625 77.43359375 C-109.51171875 76.12890625 -109.51171875 76.12890625 -107.1640625 74.55859375 C-106.2565625 73.94113281 -105.3490625 73.32367188 -104.4140625 72.6875 C-103.89457031 72.33574707 -103.37507813 71.98399414 -102.83984375 71.62158203 C-99.42096815 69.28503025 -96.04557074 66.88624511 -92.6640625 64.49609375 C-91.92164307 63.97225098 -91.17922363 63.4484082 -90.41430664 62.90869141 C-85.58175739 59.49453504 -80.78729785 56.03251026 -76.01171875 52.5390625 C-71.66581556 49.39484529 -67.27453762 46.3156126 -62.88452148 43.23339844 C-58.92403879 40.4466692 -54.98764449 37.63132188 -51.078125 34.7734375 C-50.25707275 34.17426514 -49.43602051 33.57509277 -48.59008789 32.95776367 C-46.99516965 31.79138842 -45.40311498 30.62108553 -43.81420898 29.4465332 C-42.73635132 28.6589563 -42.73635132 28.6589563 -41.63671875 27.85546875 C-41.0012915 27.3872168 -40.36586426 26.91896484 -39.71118164 26.43652344 C-38.1015625 25.43359375 -38.1015625 25.43359375 -36.1015625 25.43359375 C-36.1015625 24.77359375 -36.1015625 24.11359375 -36.1015625 23.43359375 C-34.15234375 22.05859375 -34.15234375 22.05859375 -31.4140625 20.43359375 C-26.23697373 17.2430623 -21.45795727 13.74976808 -16.69458008 9.98632812 C-7.10411797 2.43359375 -7.10411797 2.43359375 -4.1015625 2.43359375 C-4.1015625 1.77359375 -4.1015625 1.11359375 -4.1015625 0.43359375 C-2.1015625 -0.56640625 -2.1015625 -0.56640625 0 0 Z M-4.265625 45.62890625 C-5.07773438 46.26570313 -5.88984375 46.9025 -6.7265625 47.55859375 C-7.69207031 48.2959375 -8.65757812 49.03328125 -9.65234375 49.79296875 C-10.19455566 50.21126953 -10.73676758 50.62957031 -11.29541016 51.06054688 C-14.78402801 53.71261322 -18.35611433 56.25078024 -21.9140625 58.80859375 C-23.47793254 59.93740586 -25.04173493 61.06631169 -26.60546875 62.1953125 C-32.75606634 66.62879769 -38.92687597 71.03375245 -45.1015625 75.43359375 C-54.876919 82.39833427 -54.876919 82.39833427 -64.6015625 89.43359375 C-68.9429341 92.59742491 -73.29791886 95.74157771 -77.6640625 98.87109375 C-78.57671875 99.52754883 -78.57671875 99.52754883 -79.5078125 100.19726562 C-83.8688528 103.3172389 -83.8688528 103.3172389 -86.1015625 104.43359375 C-86.1015625 105.09359375 -86.1015625 105.75359375 -86.1015625 106.43359375 C-86.7615625 106.63984375 -87.4215625 106.84609375 -88.1015625 107.05859375 C-92.34928225 109.0054653 -96.02597436 110.82995219 -99.1015625 114.43359375 C-100.20479418 118.43247354 -100.03664783 122.27215706 -99.8828125 126.39453125 C-99.87149292 127.5402359 -99.86017334 128.68594055 -99.84851074 129.86636353 C-99.80382813 133.515495 -99.70346826 137.16065589 -99.6015625 140.80859375 C-99.56142558 143.28640148 -99.5249252 145.76427097 -99.4921875 148.2421875 C-99.40411934 154.30733775 -99.27036007 160.37018212 -99.1015625 166.43359375 C-95.67826492 164.78267165 -92.48252857 163.15778222 -89.47265625 160.83203125 C-88.83714844 160.34669922 -88.20164063 159.86136719 -87.546875 159.36132812 C-86.55300781 158.59272461 -86.55300781 158.59272461 -85.5390625 157.80859375 C-80.63085557 154.06664883 -75.70165633 150.4100622 -70.6015625 146.93359375 C-65.66459838 143.56081628 -60.86830923 140.04243545 -56.1015625 136.43359375 C-50.28326879 132.02998192 -44.38189697 127.81637483 -38.359375 123.6953125 C-34.83377695 121.24768507 -31.36934534 118.72889752 -27.9140625 116.18359375 C-26.99778076 115.51203247 -26.99778076 115.51203247 -26.06298828 114.8269043 C-22.45309359 112.17819396 -18.86483267 109.50321229 -15.2890625 106.80859375 C-13.66427468 105.59997512 -12.03927799 104.39163724 -10.4140625 103.18359375 C-9.26417847 102.30525879 -9.26417847 102.30525879 -8.09106445 101.40917969 C-7.00764771 100.60915527 -7.00764771 100.60915527 -5.90234375 99.79296875 C-5.26466064 99.31311523 -4.62697754 98.83326172 -3.9699707 98.33886719 C-2.1015625 97.43359375 -2.1015625 97.43359375 -0.03540039 97.6652832 C2.95759638 98.85439579 5.29156303 100.86735448 7.7734375 102.87109375 C8.94243476 103.79236744 10.1130599 104.71157862 11.28515625 105.62890625 C11.88505371 106.09844727 12.48495117 106.56798828 13.10302734 107.05175781 C15.87980344 109.18890123 18.72595626 111.22232324 21.5859375 113.24609375 C22.15691162 113.65085937 22.72788574 114.055625 23.31616211 114.47265625 C24.52641124 115.33057113 25.73678296 116.1883131 26.94726562 117.04589844 C30.58968577 119.63642848 34.21237252 122.25428808 37.8359375 124.87109375 C38.59181152 125.41588379 39.34768555 125.96067383 40.12646484 126.52197266 C43.83798178 129.20167358 47.53459405 131.89840435 51.203125 134.63671875 C51.87996338 135.14017822 52.55680176 135.6436377 53.25415039 136.16235352 C54.51994039 137.10597114 55.78239342 138.05408884 57.04077148 139.00756836 C60.20491796 141.36373304 63.15044166 143.17488595 66.8984375 144.43359375 C66.8984375 145.09359375 66.8984375 145.75359375 66.8984375 146.43359375 C68.97064526 148.18765509 68.97064526 148.18765509 71.5859375 149.93359375 C72.45605469 150.54203125 73.32617188 151.15046875 74.22265625 151.77734375 C76.7325267 153.3308986 79.12802111 154.4352455 81.8984375 155.43359375 C81.8984375 156.09359375 81.8984375 156.75359375 81.8984375 157.43359375 C83.49766663 158.81421937 83.49766663 158.81421937 85.7109375 160.24609375 C86.608125 160.85710937 87.5053125 161.468125 88.4296875 162.09765625 C89.22632813 162.63374512 89.22632813 162.63374512 90.0390625 163.18066406 C93.08541677 165.23343324 96.11920725 167.30456996 99.15307617 169.37573242 C100.83636446 170.52432724 102.52138044 171.67039485 104.20825195 172.8137207 C107.51694627 175.06568161 110.73836181 177.30362501 113.84765625 179.828125 C115.72683015 181.63907028 115.72683015 181.63907028 117.8984375 181.43359375 C117.8984375 182.09359375 117.8984375 182.75359375 117.8984375 183.43359375 C119.72530101 184.77270244 121.61237078 186.03017174 123.5234375 187.24609375 C127.00895936 189.50264033 130.39271402 191.70203751 133.5234375 194.43359375 C135.63591863 196.64830567 135.63591863 196.64830567 137.8984375 196.43359375 C137.8984375 258.47359375 137.8984375 320.51359375 137.8984375 384.43359375 C114.4684375 384.43359375 91.0384375 384.43359375 66.8984375 384.43359375 C66.8984375 398.29359375 66.8984375 412.15359375 66.8984375 426.43359375 C107.1584375 426.43359375 147.4184375 426.43359375 188.8984375 426.43359375 C189.04404479 383.18849939 189.04404479 383.18849939 189.14257812 339.94335938 C189.15236766 334.11564057 189.16247012 328.28792243 189.1730957 322.46020508 C189.17441445 321.72978369 189.17573319 320.99936229 189.1770919 320.24680692 C189.1988455 308.4507527 189.23826838 296.6548202 189.28420148 284.85883818 C189.33093969 272.7552588 189.35872729 260.6517432 189.36887997 248.54807729 C189.37574466 241.07786445 189.39743481 233.6079955 189.43801983 226.13788851 C189.46754489 220.4122338 189.4707183 214.68680002 189.46397591 208.96108437 C189.46535441 206.61044189 189.47533918 204.25978672 189.49446487 201.90922165 C189.51926319 198.70501424 189.51338998 195.50229011 189.49971008 192.29804993 C189.51427429 191.36322275 189.5288385 190.42839557 189.54384404 189.4652403 C189.49132785 184.9290499 189.40192338 183.0626397 186.48175335 179.41423321 C185.62925912 178.76062219 184.77676489 178.10701117 183.8984375 177.43359375 C183.26010986 176.92054688 182.62178223 176.4075 181.96411133 175.87890625 C181.35075928 175.44320312 180.73740723 175.0075 180.10546875 174.55859375 C179.05033081 173.80328369 179.05033081 173.80328369 177.97387695 173.03271484 C177.22710693 172.50500488 176.48033691 171.97729492 175.7109375 171.43359375 C174.09627867 170.28005359 172.48169754 169.12640466 170.8671875 167.97265625 C170.04347656 167.38645508 169.21976562 166.80025391 168.37109375 166.19628906 C164.47237895 163.41699198 160.59154128 160.61309548 156.7109375 157.80859375 C155.96465088 157.27000732 155.21836426 156.7314209 154.44946289 156.17651367 C149.66615427 152.72164059 144.90190413 149.24187493 140.1484375 145.74609375 C137.73316096 143.97335724 135.31630408 142.20279578 132.8984375 140.43359375 C132.2472998 139.95664063 131.59616211 139.4796875 130.92529297 138.98828125 C128.98264699 137.56889254 127.03508883 136.15653111 125.0859375 134.74609375 C124.49264648 134.31143799 123.89935547 133.87678223 123.28808594 133.42895508 C120.38754606 131.14541973 120.38754606 131.14541973 116.8984375 130.43359375 C116.8984375 129.77359375 116.8984375 129.11359375 116.8984375 128.43359375 C114.83379177 126.86162683 114.83379177 126.86162683 112.0859375 125.18359375 C106.47443833 121.53942017 101.07884074 117.67703539 95.7109375 113.68359375 C88.89446089 108.62114348 82.02292626 103.65572208 75.06542969 98.7890625 C71.53622865 96.3147766 68.03544255 93.81094853 64.57421875 91.2421875 C63.88231445 90.72873779 63.19041016 90.21528809 62.47753906 89.6862793 C61.16248338 88.70635584 59.85047312 87.72232811 58.54199219 86.73364258 C55.54550259 84.24770595 55.54550259 84.24770595 51.8984375 83.43359375 C51.8984375 82.77359375 51.8984375 82.11359375 51.8984375 81.43359375 C50.21940804 80.08064308 50.21940804 80.08064308 48.0234375 78.74609375 C43.56509535 75.88455877 39.25754939 72.85755258 34.96484375 69.75390625 C33.02624459 68.25412018 33.02624459 68.25412018 30.8984375 68.43359375 C30.8984375 67.77359375 30.8984375 67.11359375 30.8984375 66.43359375 C29.30080599 65.26076599 27.640196 64.17372962 25.9609375 63.12109375 C19.58655571 59.00319753 13.62716514 54.45972189 7.68774414 49.73901367 C6.99414795 49.19607666 6.30055176 48.65313965 5.5859375 48.09375 C4.66361328 47.36103882 4.66361328 47.36103882 3.72265625 46.61352539 C0.76620113 44.70124654 -1.1024837 43.881756 -4.265625 45.62890625 Z M-143.1640625 243.30859375 C-144.26878906 244.02789062 -145.37351563 244.7471875 -146.51171875 245.48828125 C-147.36636719 246.13023437 -148.22101563 246.7721875 -149.1015625 247.43359375 C-149.1015625 248.09359375 -149.1015625 248.75359375 -149.1015625 249.43359375 C-151.0815625 250.09359375 -153.0615625 250.75359375 -155.1015625 251.43359375 C-155.1015625 252.09359375 -155.1015625 252.75359375 -155.1015625 253.43359375 C-155.91367188 253.8203125 -155.91367188 253.8203125 -156.7421875 254.21484375 C-159.53648691 255.65825669 -162.18375596 257.26797909 -164.8515625 258.93359375 C-165.83640625 259.54203125 -166.82125 260.15046875 -167.8359375 260.77734375 C-168.58359375 261.32390625 -169.33125 261.87046875 -170.1015625 262.43359375 C-170.1015625 263.09359375 -170.1015625 263.75359375 -170.1015625 264.43359375 C-170.80152344 264.67335938 -171.50148438 264.913125 -172.22265625 265.16015625 C-175.60008436 266.65410681 -178.22651193 268.5729358 -181.1640625 270.80859375 C-182.18628906 271.57945312 -183.20851563 272.3503125 -184.26171875 273.14453125 C-189.25843832 276.79228821 -189.25843832 276.79228821 -191.59375381 282.20592117 C-191.59006664 283.27888821 -191.58637947 284.35185524 -191.58258057 285.45733643 C-191.58807922 286.69130157 -191.59357788 287.92526672 -191.59924316 289.19662476 C-191.58508756 290.56110009 -191.57054834 291.92557148 -191.55566406 293.29003906 C-191.55453559 294.7290341 -191.55516945 296.16803145 -191.55743408 297.60702515 C-191.55858217 301.51182418 -191.53505793 305.41613213 -191.50713825 309.32081699 C-191.48214023 313.40206478 -191.47978387 317.4833237 -191.47503662 321.56463623 C-191.46260211 329.29237571 -191.42977417 337.01988895 -191.38963866 344.74752879 C-191.34493566 353.54548749 -191.32293763 362.34345696 -191.30285692 371.14150095 C-191.26104188 389.2389935 -191.19068068 407.33627544 -191.1015625 425.43359375 C-187.01128847 426.06712657 -183.05591731 426.55904022 -178.91650391 426.56298828 C-177.95926422 426.56614044 -177.00202454 426.5692926 -176.01577759 426.57254028 C-175.00510223 426.57051605 -173.99442688 426.56849182 -172.953125 426.56640625 C-171.89999115 426.56736298 -170.8468573 426.5683197 -169.7618103 426.56930542 C-167.54807475 426.56998323 -165.33433716 426.56815691 -163.12060547 426.56396484 C-159.71707775 426.55857874 -156.31368007 426.56393978 -152.91015625 426.5703125 C-150.75781221 426.56965228 -148.60546825 426.56837228 -146.453125 426.56640625 C-145.43030426 426.56843048 -144.40748352 426.57045471 -143.35366821 426.57254028 C-142.41534149 426.56938812 -141.47701477 426.56623596 -140.51025391 426.56298828 C-139.26618271 426.56179489 -139.26618271 426.56179489 -137.99697876 426.56057739 C-136.09026511 426.64171585 -136.09026511 426.64171585 -135.1015625 425.43359375 C-135.00150772 423.36696125 -134.97356018 421.29683586 -134.97216797 419.2277832 C-134.97043831 418.57010578 -134.96870865 417.91242836 -134.96692657 417.23482132 C-134.96251477 415.00548151 -134.96554852 412.77621605 -134.96875 410.546875 C-134.96773176 408.94286578 -134.96639082 407.33885673 -134.9647522 405.73484802 C-134.9620102 401.32960222 -134.96659809 396.92439078 -134.97299194 392.51914978 C-134.97655177 389.75442398 -134.97818066 386.98970339 -134.97924805 384.22497559 C-135.00223289 335.95887726 -135.5475286 287.69600311 -136.1015625 239.43359375 C-138.44860906 239.43359375 -141.3291464 242.10248516 -143.1640625 243.30859375 Z M-19.1015625 265.43359375 C-19.1015625 292.82359375 -19.1015625 320.21359375 -19.1015625 348.43359375 C-2.6015625 348.43359375 13.8984375 348.43359375 30.8984375 348.43359375 C30.8984375 321.04359375 30.8984375 293.65359375 30.8984375 265.43359375 C14.3984375 265.43359375 -2.1015625 265.43359375 -19.1015625 265.43359375 Z " fill="#F0AA6E" transform="translate(254.1015625,15.56640625)"/>
<path d="M0 0 C0.99 0.495 0.99 0.495 2 1 C1.67 83.5 1.34 166 1 251 C-41.24 251 -83.48 251 -127 251 C-127 184.34 -127 117.68 -127 49 C-126.67 49 -126.34 49 -126 49 C-125.67 115 -125.34 181 -125 249 C-84.08 249.33 -43.16 249.66 -1 250 C-1.33 178.06 -1.66 106.12 -2 32 C-2.66 31.67 -3.32 31.34 -4 31 C-4 31.66 -4 32.32 -4 33 C-4.66 33 -5.32 33 -6 33 C-6.20625 33.5775 -6.4125 34.155 -6.625 34.75 C-8.11116421 37.18190507 -9.61983583 38.24728795 -12.01953125 39.72265625 C-15.62302542 42.04680338 -18.99304823 44.71043837 -22.4140625 47.29296875 C-24.73399489 48.82440448 -26.2906609 49.57388329 -29 50 C-29 50.99 -29 51.98 -29 53 C-29.64493912 53.43778275 -30.28987823 53.87556549 -30.95436096 54.32661438 C-33.24910979 55.85445142 -33.24910979 55.85445142 -33.59825134 58.62297058 C-33.64180252 59.66286636 -33.6853537 60.70276215 -33.73022461 61.77416992 C-33.81323318 63.52230484 -33.81323318 63.52230484 -33.8979187 65.30575562 C-33.94844894 67.13440659 -33.94844894 67.13440659 -34 69 C-34.05572678 70.7415184 -34.05572678 70.7415184 -34.11257935 72.51821899 C-34.20900257 76.21660003 -34.26761803 79.91397591 -34.31640625 83.61328125 C-34.33704933 84.96234159 -34.35804727 86.31139654 -34.37937927 87.66044617 C-34.43384269 91.16355953 -34.48357662 94.66672361 -34.53222656 98.16992188 C-34.58300488 101.76371626 -34.6383929 105.35743954 -34.69335938 108.95117188 C-34.80001044 115.96738595 -34.9016507 122.98366423 -35 130 C-35.33 130 -35.66 130 -36 130 C-36.33 96.67 -36.66 63.34 -37 29 C-38.65 29.66 -40.3 30.32 -42 31 C-40.94901234 28.13367003 -40.33137046 27.16993357 -37.5625 25.75 C-35 25 -35 25 -32 25 C-31.505 23.515 -31.505 23.515 -31 22 C-27.23134178 18.59605064 -22.92941056 15.82809641 -18.76171875 12.9375 C-14.97831095 10.28322805 -11.26046173 7.5424385 -7.54296875 4.796875 C-5.07681725 3.05427947 -2.67730109 1.40001483 0 0 Z " fill="#AC7D58" transform="translate(154,227)"/>
<path d="M0 0 C7.59 0 15.18 0 23 0 C23 11.55 23 23.1 23 35 C37.52 35 52.04 35 67 35 C67 35.33 67 35.66 67 36 C45.22 36 23.44 36 1 36 C1 49.53 1 63.06 1 77 C0.67 77 0.34 77 0 77 C0 51.59 0 26.18 0 0 Z " fill="#B98558" transform="translate(320,364)"/>
<path d="M0 0 C39.93 0 79.86 0 121 0 C121.495 1.485 121.495 1.485 122 3 C119.6062866 4.1968567 118.14178739 4.12321706 115.46957397 4.12025452 C114.51602524 4.12162918 113.5624765 4.12300385 112.58003235 4.12442017 C111.005868 4.11902725 111.005868 4.11902725 109.39990234 4.11352539 C108.29745682 4.11367142 107.19501129 4.11381744 106.05915833 4.1139679 C102.40139829 4.11326912 98.74368868 4.10547833 95.0859375 4.09765625 C92.55530831 4.09579195 90.02467875 4.0943681 87.49404907 4.09336853 C81.50526544 4.08993557 75.51650358 4.08204755 69.52772868 4.07201904 C62.7104022 4.06085033 55.89307487 4.05534554 49.07574153 4.05032361 C35.05048426 4.03986475 21.02524313 4.02227001 7 4 C6.71125 4.639375 6.4225 5.27875 6.125 5.9375 C5 8 5 8 3 9 C3 7.02 3 5.04 3 3 C2.34 2.67 1.68 2.34 1 2 C1 52.49 1 102.98 1 155 C29.05 155 57.1 155 86 155 C86 155.33 86 155.66 86 156 C57.62 156 29.24 156 0 156 C0 104.52 0 53.04 0 0 Z " fill="#B07C50" transform="translate(199,244)"/>
<path d="M0 0 C0.92935364 -0.00281982 1.85870728 -0.00563965 2.81622314 -0.00854492 C4.33505348 -0.00550858 4.33505348 -0.00550858 5.88456726 -0.00241089 C6.95655365 -0.00416321 8.02854004 -0.00591553 9.13301086 -0.00772095 C12.68131626 -0.01212663 16.2295719 -0.00920532 19.77787781 -0.00582886 C22.244039 -0.00650241 24.71020012 -0.00747287 27.17636108 -0.00872803 C32.34879691 -0.01020338 37.52121547 -0.00805617 42.69364929 -0.00338745 C49.3179859 0.00230077 55.94228191 -0.00096446 62.56661701 -0.00695992 C67.6615835 -0.01057752 72.75654041 -0.00942126 77.85150719 -0.00683212 C80.29350476 -0.00616571 82.73550322 -0.00698129 85.17749977 -0.00931168 C88.59550394 -0.01185685 92.01344293 -0.00797085 95.43144226 -0.00241089 C96.43792313 -0.00443512 97.44440399 -0.00645935 98.48138428 -0.00854492 C103.54758799 0.00668818 108.35898835 0.25521445 113.35209656 1.12698364 C111.35209656 3.12698364 111.35209656 3.12698364 108.22709656 3.25198364 C107.27834656 3.21073364 106.32959656 3.16948364 105.35209656 3.12698364 C105.35209656 3.78698364 105.35209656 4.44698364 105.35209656 5.12698364 C104.41752625 4.96198364 103.48295593 4.79698364 102.52006531 4.62698364 C97.56779296 3.92743361 92.65565418 4.06702982 87.66459656 4.12698364 C77.82111143 4.19657172 67.99038215 4.08224777 58.14897156 3.87307739 C56.98508408 3.84855499 55.82119659 3.82403259 54.62203979 3.79876709 C48.69046204 3.67187291 42.75915533 3.53678635 36.82792664 3.39456177 C34.60812191 3.34558757 32.38831409 3.29675346 30.16850281 3.24807739 C28.62165802 3.2075248 28.62165802 3.2075248 27.04356384 3.16615295 C26.08907349 3.14605667 25.13458313 3.12596039 24.15116882 3.10525513 C23.31771439 3.08526962 22.48425995 3.06528412 21.62554932 3.04469299 C19.38694063 3.12572242 17.51221194 3.57434943 15.35209656 4.12698364 C13.68121534 3.81546342 12.01495253 3.47883433 10.35209656 3.12698364 C7.97849403 3.03548423 5.60245667 2.99694042 3.22709656 3.00198364 C1.39791687 2.99811646 1.39791687 2.99811646 -0.46821594 2.99417114 C-3.67129945 2.98124831 -3.67129945 2.98124831 -6.64790344 4.12698364 C-7.30790344 3.79698364 -7.96790344 3.46698364 -8.64790344 3.12698364 C-8.64790344 2.46698364 -8.64790344 1.80698364 -8.64790344 1.12698364 C-5.69377865 0.27666956 -3.06995848 0.00143645 0 0 Z " fill="#F2BD82" transform="translate(329.6479034423828,441.8730163574219)"/>
<path d="M0 0 C0.33 0 0.66 0 1 0 C1 52.14 1 104.28 1 158 C0.34 158 -0.32 158 -1 158 C-2.30254931 78.32525122 -2.30254931 78.32525122 -1.625 39.625 C-1.60357941 38.3446991 -1.58215881 37.06439819 -1.56008911 35.74530029 C-1.49705233 32.13472456 -1.4265976 28.52440727 -1.3515625 24.9140625 C-1.33166763 23.88839172 -1.31177277 22.86272095 -1.29127502 21.80596924 C-1.1183647 14.51324185 -0.6185892 7.26785147 0 0 Z " fill="#D79F73" transform="translate(120,283)"/>
<path d="M0 0 C1.69485348 3.38970697 1.14717494 7.24706919 1.14526367 10.97607422 C1.14862228 11.90628387 1.1519809 12.83649353 1.15544128 13.79489136 C1.16496943 16.88150352 1.16689537 19.96806153 1.16796875 23.0546875 C1.17118019 25.19459048 1.17454417 27.33449324 1.17805481 29.47439575 C1.18405085 33.96519479 1.18589424 38.45597458 1.18530273 42.94677734 C1.18520112 48.70608964 1.19885054 54.46527863 1.21607494 60.22456169 C1.22718468 64.64601205 1.22922225 69.06743252 1.22869301 73.48889542 C1.22987478 75.61240183 1.23430757 77.73590898 1.24202538 79.8594017 C1.25180388 82.82806825 1.24895556 85.796466 1.24291992 88.76513672 C1.24853943 89.64528442 1.25415894 90.52543213 1.25994873 91.43225098 C1.253657 92.64780167 1.253657 92.64780167 1.24723816 93.88790894 C1.24778293 94.58956114 1.24832769 95.29121334 1.24888897 96.01412773 C0.95734781 98.34031961 0.14621096 99.97080491 -1 102 C-2.32 101.67 -3.64 101.34 -5 101 C-3.515 100.505 -3.515 100.505 -2 100 C-2.00444122 98.79143845 -2.00888245 97.58287689 -2.01345825 96.33769226 C-2.05395445 84.96305786 -2.08396039 73.58843804 -2.10362434 62.21374798 C-2.11407351 56.3655313 -2.1282534 50.5173727 -2.15087891 44.66918945 C-2.17256684 39.02821594 -2.18456008 33.38729837 -2.18975449 27.74628639 C-2.19345753 25.59124686 -2.20068837 23.43621048 -2.21146011 21.28119469 C-2.22592116 18.26901949 -2.2279802 15.25707722 -2.22705078 12.24487305 C-2.23783661 10.90051933 -2.23783661 10.90051933 -2.24884033 9.52900696 C-2.246091 8.70871002 -2.24334167 7.88841309 -2.24050903 7.04325867 C-2.24235262 6.33071269 -2.24419621 5.61816671 -2.24609566 4.88402843 C-2 3 -2 3 0 0 Z " fill="#88634A" transform="translate(120,110)"/>
<path d="M0 0 C0.99 0.33 1.98 0.66 3 1 C3 63.04 3 125.08 3 189 C2.01 188.67 1.02 188.34 0 188 C0.66 188 1.32 188 2 188 C1.89274296 164.52139553 1.77997829 141.04282311 1.66066074 117.5642767 C1.60538765 106.66273497 1.55191541 95.76118997 1.50268555 84.85961914 C1.45977123 75.35758757 1.41347503 65.85557952 1.36312145 56.35358435 C1.33657888 51.32258798 1.31172737 46.29159609 1.29092598 41.26057243 C1.27128787 36.52382513 1.24712295 31.78712235 1.21950912 27.05041504 C1.21017659 25.31341425 1.20248782 23.57640371 1.19658089 21.83938789 C1.18825483 19.46395732 1.17396065 17.08863295 1.15821838 14.71324158 C1.15724028 14.02936983 1.15626217 13.34549807 1.15525442 12.64090294 C1.11860314 8.32644516 0.68969657 4.24689356 0 0 Z " fill="#D9A678" transform="translate(389,211)"/>
<path d="M0 0 C-2 2 -2 2 -5.125 2.125 C-6.07375 2.08375 -7.0225 2.0425 -8 2 C-8 2.66 -8 3.32 -8 4 C-8.93328125 3.835 -9.8665625 3.67 -10.828125 3.5 C-15.80177643 2.79725522 -20.73746356 2.94038764 -25.75 3 C-40.23382591 3.09291949 -54.70723659 2.79807747 -69.1875 2.5 C-70.36010376 2.47599121 -71.53270752 2.45198242 -72.74084473 2.42724609 C-79.49397364 2.28838126 -86.2470243 2.1461233 -93 2 C-93 1.67 -93 1.34 -93 1 C-82.793827 0.86863922 -72.58764286 0.73818365 -62.38144398 0.60884857 C-57.64109041 0.54875013 -52.90074107 0.48835281 -48.16040039 0.42724609 C-43.5762642 0.36816441 -38.99211823 0.30990224 -34.40796471 0.25218201 C-32.66869429 0.23014344 -30.92942744 0.20782138 -29.19016457 0.18519592 C-19.45935619 0.05881308 -9.7318204 -0.03427009 0 0 Z " fill="#FCBB74" transform="translate(443,443)"/>
<path d="M0 0 C0.66 0 1.32 0 2 0 C4.14782833 3.22174249 4.24649148 4.0433731 4.22705078 7.74682617 C4.22689972 8.70759567 4.22674866 9.66836517 4.22659302 10.6582489 C4.21627045 11.69270645 4.20594788 12.727164 4.1953125 13.79296875 C4.1924826 14.85413406 4.18965271 15.91529938 4.18673706 17.00862122 C4.17553184 20.40169497 4.15042647 23.79450587 4.125 27.1875 C4.11497065 29.48632432 4.10584472 31.78515276 4.09765625 34.08398438 C4.07559141 39.72274611 4.04211044 45.36135428 4 51 C3.34 51 2.68 51 2 51 C0.93263883 39.06842695 0.93828119 27.17759296 1.125 15.21044922 C1.13660156 13.94990723 1.14820313 12.68936523 1.16015625 11.390625 C1.17699463 10.25657227 1.19383301 9.12251953 1.21118164 7.95410156 C1.00443677 5.06206345 0.50859191 3.43904526 -1 1 C-0.67 0.67 -0.34 0.34 0 0 Z " fill="#BD8A65" transform="translate(441,193)"/>
<path d="M0 0 C3.1875 0.875 3.1875 0.875 6 2 C5.67 2.66 5.34 3.32 5 4 C2.97341581 4.19300802 0.94428979 4.37971983 -1.08984375 4.4609375 C-2.03537109 4.72777344 -2.03537109 4.72777344 -3 5 C-3.70622199 6.312811 -4.36537203 7.65112285 -5 9 C-6.61353964 10.59718619 -8.28645556 12.13561108 -10 13.625 C-10.886875 14.40101563 -11.77375 15.17703125 -12.6875 15.9765625 C-13.450625 16.64429688 -14.21375 17.31203125 -15 18 C-15.66 18.66 -16.32 19.32 -17 20 C-18.32 19.34 -19.64 18.68 -21 18 C-19.63015111 14.7929065 -18.21410518 13.10732055 -15.41015625 11.0546875 C-14.35731445 10.27544922 -14.35731445 10.27544922 -13.28320312 9.48046875 C-12.55037109 8.95066406 -11.81753906 8.42085938 -11.0625 7.875 C-10.33353516 7.33746094 -9.60457031 6.79992187 -8.85351562 6.24609375 C-5.93689943 4.10207341 -3.01250879 2.00833919 0 0 Z " fill="#DCA96A" transform="translate(62,249)"/>
<path d="M0 0 C0.886875 0.103125 1.77375 0.20625 2.6875 0.3125 C3.0175 1.3025 3.3475 2.2925 3.6875 3.3125 C-2.0625 7.3125 -2.0625 7.3125 -4.3125 7.3125 C-4.3125 7.9725 -4.3125 8.6325 -4.3125 9.3125 C-6.40845521 11.36013347 -8.71120926 12.96885809 -11.3125 14.3125 C-14.25 14.125 -14.25 14.125 -16.3125 13.3125 C-16.3125 12.6525 -16.3125 11.9925 -16.3125 11.3125 C-16.9725 10.9825 -17.6325 10.6525 -18.3125 10.3125 C-16.03949222 7.60237534 -14.94322221 6.40643735 -11.375 5.875 C-8.08804866 5.57616982 -8.08804866 5.57616982 -5.8125 2.75 C-3.3125 0.3125 -3.3125 0.3125 0 0 Z " fill="#EDA463" transform="translate(217.3125,177.6875)"/>
<path d="M0 0 C0.66 0 1.32 0 2 0 C2.78535552 4.85603239 3.13049643 9.51527289 3.14526367 14.43237305 C3.14862228 15.13898071 3.1519809 15.84558838 3.15544128 16.5736084 C3.16486487 18.88633018 3.16688943 21.19897902 3.16796875 23.51171875 C3.17118521 25.12880991 3.17454957 26.74590078 3.17805481 28.36299133 C3.18402301 31.74110591 3.18589688 35.11919498 3.18530273 38.49731445 C3.18520076 42.82497858 3.19889969 47.15247995 3.21607494 51.4801054 C3.22718764 54.81466932 3.22922224 58.14919364 3.22869301 61.48377419 C3.22987242 63.07976662 3.23429206 64.6757601 3.24202538 66.27173424 C3.25181896 68.49987681 3.24895085 70.72766227 3.24291992 72.95581055 C3.24434494 74.22265182 3.24576996 75.4894931 3.24723816 76.79472351 C3 80 3 80 1 84 C0.67 56.28 0.34 28.56 0 0 Z " fill="#F0B881" transform="translate(285,280)"/>
<path d="M0 0 C0.33 0 0.66 0 1 0 C1.33 16.83 1.66 33.66 2 51 C2.66 51.33 3.32 51.66 4 52 C3.67 52.66 3.34 53.32 3 54 C1.68 54 0.36 54 -1 54 C-1.0252908 46.63102956 -1.04284179 39.26207026 -1.05493164 31.89306641 C-1.05997003 29.38459861 -1.06680084 26.87613376 -1.07543945 24.36767578 C-1.08752661 20.7685473 -1.09323315 17.16945753 -1.09765625 13.5703125 C-1.10281754 12.44319855 -1.10797882 11.31608459 -1.11329651 10.15481567 C-1.11337204 9.11388763 -1.11344757 8.07295959 -1.11352539 7.00048828 C-1.115746 6.08115509 -1.11796661 5.1618219 -1.12025452 4.21463013 C-1 2 -1 2 0 0 Z " fill="#A07254" transform="translate(154,130)"/>
<path d="M0 0 C0.66 0.33 1.32 0.66 2 1 C2 4.38023517 1.12544378 6.83468937 0 10 C-2.64 9.67 -5.28 9.34 -8 9 C-8.66 10.32 -9.32 11.64 -10 13 C-10.99 12.67 -11.98 12.34 -13 12 C-13.33 12.99 -13.66 13.98 -14 15 C-17.72230027 17.73698549 -21.55495127 18.86694836 -26 20 C-21.91096844 15.59392623 -17.37829988 12.27630601 -12.4375 8.875 C-10.93588517 7.83117893 -9.43457316 6.78692207 -7.93359375 5.7421875 C-6.9444397 5.05938721 -6.9444397 5.05938721 -5.93530273 4.36279297 C-3.92571595 2.94769099 -1.95917708 1.4839028 0 0 Z " fill="#DFAF74" transform="translate(223,133)"/>
<path d="M0 0 C2.31941564 1.63871757 4.53591818 3.2936676 6.75 5.0625 C7.35199219 5.53494141 7.95398438 6.00738281 8.57421875 6.49414062 C10.05409943 7.65690401 11.52768096 8.8276766 13 10 C12.67 10.66 12.34 11.32 12 12 C9.63284044 11.59186904 8.31227115 11.32646529 6.625 9.5625 C4.26130078 7.28971229 2.18754252 6.68750917 -1 6 C-4.59854469 6.86365073 -7.74851891 8.24920249 -11 10 C-11.4375 7.3125 -11.4375 7.3125 -11 4 C-7.63837088 0.33276824 -4.86195383 -1.61571027 0 0 Z " fill="#E8B06C" transform="translate(256,113)"/>
<path d="M0 0 C0.99 0.33 1.98 0.66 3 1 C2.67 1.66 2.34 2.32 2 3 C1.34 3 0.68 3 0 3 C0 18.51 0 34.02 0 50 C-0.33 50 -0.66 50 -1 50 C-3.19265758 22.90376745 -3.19265758 22.90376745 -3.25 10.875 C-3.25902344 10.09535889 -3.26804688 9.31571777 -3.27734375 8.51245117 C-3.25428424 4.2911189 -2.95541109 2.95541109 0 0 Z " fill="#6B3C2E" transform="translate(64,290)"/>
<path d="M0 0 C0.609375 1.859375 0.609375 1.859375 1 4 C-0.75 6.25 -0.75 6.25 -3 8 C-3.99 8 -4.98 8 -6 8 C-6 32.75 -6 57.5 -6 83 C-6.33 83 -6.66 83 -7 83 C-7.16224035 72.91665946 -7.28659386 62.8336297 -7.3626852 52.74924946 C-7.39920725 48.06649466 -7.44873693 43.38463319 -7.52807617 38.70239258 C-7.60417556 34.18303349 -7.64599803 29.66453311 -7.6641407 25.14458275 C-7.67706805 23.42089504 -7.70231371 21.69725401 -7.7401104 19.97393227 C-7.790997 17.55751948 -7.79792193 15.14464619 -7.79467773 12.7277832 C-7.83242813 11.66071136 -7.83242813 11.66071136 -7.87094116 10.57208252 C-7.82753398 7.58053066 -7.55750624 5.54930311 -5.38820076 3.41191673 C-3.45033264 2.01701355 -3.45033264 2.01701355 0 0 Z " fill="#DCA778" transform="translate(35,269)"/>
<path d="M0 0 C1.26218322 2.52436644 1.08309335 4.17770588 1.02172852 7.00048828 C1.00163223 8.04141632 0.98153595 9.08234436 0.96083069 10.15481567 C0.93379562 11.28192963 0.90676056 12.40904358 0.87890625 13.5703125 C0.85529526 14.72167694 0.83168427 15.87304138 0.80735779 17.05929565 C0.7305941 20.74798527 0.64662433 24.43647161 0.5625 28.125 C0.50929205 30.6210837 0.45655158 33.11717741 0.40429688 35.61328125 C0.27496179 41.74231412 0.13970512 47.87119521 0 54 C1.32 54 2.64 54 4 54 C4.0825 53.401875 4.165 52.80375 4.25 52.1875 C5.22409548 49.34638817 6.40494247 48.45017921 9 47 C9.99 47.33 10.98 47.66 12 48 C11.06725891 49.12894876 10.12859878 50.25300876 9.1875 51.375 C8.66542969 52.00148437 8.14335937 52.62796875 7.60546875 53.2734375 C6 55 6 55 3 57 C1.68 56.34 0.36 55.68 -1 55 C-1.02526605 47.32788798 -1.04283123 39.6557866 -1.05493164 31.98364258 C-1.05997377 29.37133381 -1.06680725 26.75902789 -1.07543945 24.14672852 C-1.08751036 20.40119732 -1.09322935 16.65570328 -1.09765625 12.91015625 C-1.10281754 11.73413345 -1.10797882 10.55811066 -1.11329651 9.34645081 C-1.11340981 7.72488319 -1.11340981 7.72488319 -1.11352539 6.07055664 C-1.115746 5.11347305 -1.11796661 4.15638947 -1.12025452 3.17030334 C-1 1 -1 1 0 0 Z " fill="#DA9866" transform="translate(153,130)"/>
<path d="M0 0 C0.39600661 3.46505783 0.14386351 4.78172433 -1.8125 7.75 C-4 10 -4 10 -7 11 C-7.66 11 -8.32 11 -9 11 C-11.39474682 11.38624949 -12.65251773 11.61942418 -14.3125 13.4375 C-16.84065298 15.77838239 -19.71112757 16.19329544 -23 17 C-18.55924167 12.09985287 -6.86750031 0 0 0 Z " fill="#CFA16E" transform="translate(178,69)"/>
<path d="M0 0 C0.33 0 0.66 0 1 0 C1.90289857 11.68931188 2.11465457 23.27975496 2 35 C1.34 34.67 0.68 34.34 0 34 C-0.37890625 32.08569336 -0.37890625 32.08569336 -0.5625 29.58984375 C-0.63726562 28.68169922 -0.71203125 27.77355469 -0.7890625 26.83789062 C-0.85867188 25.88076172 -0.92828125 24.92363281 -1 23.9375 C-1.49037151 17.38559172 -2.30136845 11.3486354 -4 5 C-4 4.01 -4 3.02 -4 2 C-2 3 -2 3 -1 4 C-0.67 2.68 -0.34 1.36 0 0 Z " fill="#CF9161" transform="translate(477,442)"/>
<path d="M0 0 C0.99 0.33 1.98 0.66 3 1 C3 26.08 3 51.16 3 77 C2.67 77 2.34 77 2 77 C1.98969254 76.13857895 1.97938507 75.2771579 1.96876526 74.38963318 C1.87060495 66.25372189 1.76806494 58.11787995 1.66066074 49.98208523 C1.60560223 45.79984995 1.55221055 41.61760749 1.50268555 37.43530273 C1.4547889 33.39577039 1.40243886 29.35631762 1.34705925 25.31688118 C1.32674974 23.77921607 1.3080187 22.24152923 1.29092598 20.703825 C1.26662738 18.54262359 1.23661064 16.38156901 1.20532227 14.22045898 C1.18977798 12.99246078 1.1742337 11.76446259 1.15821838 10.49925232 C0.99746968 6.94403787 0.56126164 3.51240759 0 0 Z " fill="#DAA379" transform="translate(389,211)"/>
<path d="M0 0 C-3.88026891 4.24404412 -8.04254346 7.10917547 -13 10 C-13 9.34 -13 8.68 -13 8 C-13.99 7.67 -14.98 7.34 -16 7 C-12.39863794 -1.40317815 -8.36662441 -1.46894932 0 0 Z " fill="#F8AB66" transform="translate(199,98)"/>
<path d="M0 0 C0.33 0 0.66 0 1 0 C1.15408356 7.60617289 1.30226242 15.21244152 1.4429636 22.81887341 C1.50848535 26.35107394 1.57601847 29.88321185 1.64819336 33.4152832 C1.73113428 37.47857881 1.8052454 41.54199424 1.87890625 45.60546875 C1.90594131 46.8702153 1.93297638 48.13496185 1.96083069 49.43803406 C1.98092697 50.61888077 2.00102325 51.79972748 2.02172852 53.01635742 C2.04171402 54.05338303 2.06169952 55.09040863 2.08229065 56.15885925 C2.00309893 58.89300722 1.6234175 61.34198159 1 64 C-2 62 -2 62 -4 59 C-2.515 58.505 -2.515 58.505 -1 58 C-1.00580078 57.10023438 -1.01160156 56.20046875 -1.01757812 55.2734375 C-1.0588358 43.50910707 -0.80034849 31.75995374 -0.5 20 C-0.45164277 18.04948362 -0.4034646 16.0989628 -0.35546875 14.1484375 C-0.23903706 9.432238 -0.12020441 4.71610479 0 0 Z " fill="#FAAC76" transform="translate(476,383)"/>
<path d="M0 0 C1.98 0 3.96 0 6 0 C5.67 14.19 5.34 28.38 5 43 C4.67 43 4.34 43 4 43 C3.97494385 42.07251953 3.9498877 41.14503906 3.92407227 40.18945312 C3.82836638 36.71539461 3.7291709 33.2414708 3.62768555 29.76757812 C3.58464137 28.27022126 3.54294799 26.77282487 3.50268555 25.27539062 C3.44423502 23.11055644 3.38076547 20.94591566 3.31640625 18.78125 C3.27974854 17.48251953 3.24309082 16.18378906 3.20532227 14.84570312 C2.99182964 10.84696857 2.542003 6.9656874 2 3 C0.35 3.66 -1.3 4.32 -3 5 C-1.125 1.125 -1.125 1.125 0 0 Z " fill="#A0785B" transform="translate(115,253)"/>
<path d="M0 0 C-4.14010271 4.54075781 -8.82390176 7.71842138 -14 11 C-14.33 9.35 -14.66 7.7 -15 6 C-13.47005208 4.76302083 -11.94010417 3.52604167 -10.41015625 2.2890625 C-8.86733563 1.0333609 -8.86733563 1.0333609 -8 -1 C-4.6677027 -2.37888164 -3.02109173 -1.83423426 0 0 Z " fill="#CF955F" transform="translate(245,162)"/>
<path d="M0 0 C-3.67371124 4.15289097 -8.22366459 7.23378258 -13 10 C-13.66 10 -14.32 10 -15 10 C-15 10.66 -15 11.32 -15 12 C-15.66 12 -16.32 12 -17 12 C-16.625 9.5625 -16.625 9.5625 -16 7 C-15.34 6.67 -14.68 6.34 -14 6 C-13.34 6.33 -12.68 6.66 -12 7 C-12.33 5.68 -12.66 4.36 -13 3 C-11.40084119 2.30093058 -9.79544955 1.61610532 -8.1875 0.9375 C-7.29417969 0.55464844 -6.40085937 0.17179687 -5.48046875 -0.22265625 C-3 -1 -3 -1 0 0 Z " fill="#D69963" transform="translate(99,268)"/>
<path d="M0 0 C2 1 2 1 5 3 C4.74438677 5.3431213 4.40729228 7.67843403 4 10 C3.01 10.495 3.01 10.495 2 11 C0.02 9.68 -1.96 8.36 -4 7 C-3.01 6.67 -2.02 6.34 -1 6 C-1 5.34 -1 4.68 -1 4 C-2.65 3.67 -4.3 3.34 -6 3 C-3 1 -3 1 0 0 Z " fill="#E6A766" transform="translate(314,192)"/>
<path d="M0 0 C-0.20625 0.94875 -0.4125 1.8975 -0.625 2.875 C-0.74875 3.90625 -0.8725 4.9375 -1 6 C-0.34 6.66 0.32 7.32 1 8 C-2.63423209 10.32590854 -5.77088331 10.16265833 -10 10 C-9.319375 8.88625 -9.319375 8.88625 -8.625 7.75 C-7.01635168 5.12436289 -7.01635168 5.12436289 -5.9375 2.75 C-4.40787505 -0.1052999 -3.18543192 0 0 0 Z " fill="#FDB771" transform="translate(247,21)"/>
<path d="M0 0 C2.64 0.33 5.28 0.66 8 1 C4.32442148 5.00972202 0.81033104 7.45335415 -4 10 C-3.7215625 8.824375 -3.7215625 8.824375 -3.4375 7.625 C-2.74037734 5.02910225 -2.74037734 5.02910225 -4 3 C-3.01 2.67 -2.02 2.34 -1 2 C-0.67 1.34 -0.34 0.68 0 0 Z " fill="#E09C61" transform="translate(244,59)"/>
<path d="M0 0 C1.44349674 0.73839246 2.87959051 1.49126643 4.3125 2.25 C5.11300781 2.66765625 5.91351563 3.0853125 6.73828125 3.515625 C9.19724977 5.12945581 10.52538522 6.46118103 12 9 C12 10.32 12 11.64 12 13 C11.01 12.67 10.02 12.34 9 12 C9 11.34 9 10.68 9 10 C8.01 10 7.02 10 6 10 C6 9.34 6 8.68 6 8 C4.68 7.34 3.36 6.68 2 6 C2 4.68 2 3.36 2 2 C1.34 2 0.68 2 0 2 C0 1.34 0 0.68 0 0 Z " fill="#D09156" transform="translate(279,34)"/>
<path d="M0 0 C0.609375 1.859375 0.609375 1.859375 1 4 C-0.75 6.25 -0.75 6.25 -3 8 C-3.99 8 -4.98 8 -6 8 C-6 14.27 -6 20.54 -6 27 C-6.33 27 -6.66 27 -7 27 C-7.20391987 23.43834893 -7.32782061 19.87819947 -7.4375 16.3125 C-7.49615234 15.30509766 -7.55480469 14.29769531 -7.61523438 13.25976562 C-7.78524894 5.90056354 -7.78524894 5.90056354 -5.41064453 3.17724609 C-3.47265625 1.79296875 -3.47265625 1.79296875 0 0 Z " fill="#C59565" transform="translate(35,269)"/>
<path d="M0 0 C3.40755272 1.92880342 6.74147635 3.8276509 10 6 C10 6.66 10 7.32 10 8 C10.7425 8.2475 11.485 8.495 12.25 8.75 C15.20124062 10.09147301 16.84814974 11.60905526 19 14 C18.01 14.495 18.01 14.495 17 15 C17 14.34 17 13.68 17 13 C16.05125 13.020625 15.1025 13.04125 14.125 13.0625 C11 13 11 13 9 12 C9 10.35 9 8.7 9 7 C6.03 6.505 6.03 6.505 3 6 C3 5.01 3 4.02 3 3 C2.01 2.67 1.02 2.34 0 2 C0 1.34 0 0.68 0 0 Z " fill="#AE8350" transform="translate(362,191)"/>
<path d="M0 0 C0.825 0.45375 1.65 0.9075 2.5 1.375 C2.17 2.035 1.84 2.695 1.5 3.375 C0.200625 3.49875 -1.09875 3.6225 -2.4375 3.75 C-4.58857508 3.91225995 -4.58857508 3.91225995 -6.5 4.375 C-7.95219377 6.27668356 -7.95219377 6.27668356 -8.5 8.375 C-9.49 8.87 -9.49 8.87 -10.5 9.375 C-10.83 8.055 -11.16 6.735 -11.5 5.375 C-4.60284464 -0.82193654 -4.60284464 -0.82193654 0 0 Z " fill="#D9A366" transform="translate(65.5,249.625)"/>
<path d="M0 0 C0.99 0.33 1.98 0.66 3 1 C3 1.66 3 2.32 3 3 C-0.5993632 6.34824483 -3.43644171 8.19859541 -8 10 C-8.639375 10.66 -9.27875 11.32 -9.9375 12 C-12.43612777 14.42291177 -14.67820615 15.09405622 -18 16 C-14.93506394 12.6796526 -11.52617691 10.11768346 -7.8984375 7.4609375 C-5.83867459 5.94091201 -5.83867459 5.94091201 -3.625 3.625 C-3.08875 3.08875 -2.5525 2.5525 -2 2 C-1.34 2 -0.68 2 0 2 C0 1.34 0 0.68 0 0 Z " fill="#DFA26E" transform="translate(150,258)"/>
<path d="M0 0 C0.99 0.66 1.98 1.32 3 2 C2.67 2.99 2.34 3.98 2 5 C2.66 5 3.32 5 4 5 C4 6.65 4 8.3 4 10 C2.02 9.01 0.04 8.02 -2 7 C-2 6.34 -2 5.68 -2 5 C-2.969375 4.71125 -3.93875 4.4225 -4.9375 4.125 C-8 3 -8 3 -9 1 C-6.03 1.33 -3.06 1.66 0 2 C0 1.34 0 0.68 0 0 Z " fill="#CC9761" transform="translate(349,219)"/>
<path d="M0 0 C-3.12758378 3.30630285 -6.04406252 5.76844552 -10 8 C-11.34631825 8.98244845 -12.68441297 9.97676564 -14 11 C-14 6.64240252 -12.01945134 4.05700671 -9 1 C-2.93457944 -1.46728972 -2.93457944 -1.46728972 0 0 Z " fill="#FAB56E" transform="translate(124,211)"/>
<path d="M0 0 C2.97 1.65 5.94 3.3 9 5 C9 5.66 9 6.32 9 7 C9.7425 7.2475 10.485 7.495 11.25 7.75 C14.20124062 9.09147301 15.84814974 10.60905526 18 13 C12.25 12.25 12.25 12.25 10 10 C9.01 9.67 8.02 9.34 7 9 C7.33 8.01 7.66 7.02 8 6 C5.03 5.505 5.03 5.505 2 5 C2 4.01 2 3.02 2 2 C1.34 2 0.68 2 0 2 C0 1.34 0 0.68 0 0 Z " fill="#BF8A51" transform="translate(357,90)"/>
<path d="M0 0 C6.4266106 3.42752566 12.16594374 7.65346984 18 12 C16.68 12.33 15.36 12.66 14 13 C14 12.34 14 11.68 14 11 C13.319375 10.95875 12.63875 10.9175 11.9375 10.875 C7.81496347 9.64701039 4.90003829 7.15076207 2 4 C2 3.34 2 2.68 2 2 C1.34 2 0.68 2 0 2 C0 1.34 0 0.68 0 0 Z " fill="#BB8A52" transform="translate(338,174)"/>
<path d="M0 0 C3.06875309 1.4639923 5.90434743 3.14009636 8.75 5 C9.94882812 5.7734375 9.94882812 5.7734375 11.171875 6.5625 C11.77515625 7.036875 12.3784375 7.51125 13 8 C13 8.66 13 9.32 13 10 C12.071875 9.835 11.14375 9.67 10.1875 9.5 C7.04378647 8.92251612 7.04378647 8.92251612 4 9 C4 7.68 4 6.36 4 5 C3.34 5 2.68 5 2 5 C1.34 3.35 0.68 1.7 0 0 Z " fill="#D19158" transform="translate(448,156)"/>
<path d="M0 0 C5.17609824 3.28157862 9.85989729 6.45924219 14 11 C13.01 11.33 12.02 11.66 11 12 C9.28724465 10.72641268 7.62332967 9.38576923 6 8 C5.278125 7.71125 4.55625 7.4225 3.8125 7.125 C1.03678805 5.40214431 0.79510984 3.04792105 0 0 Z " fill="#AC7642" transform="translate(255,113)"/>
<path d="M0 0 C0.5534764 2.07553648 1 3.84365964 1 6 C-0.32 6 -1.64 6 -3 6 C-3.33 6.66 -3.66 7.32 -4 8 C-5.64363134 8.72159424 -7.31050386 9.39351421 -9 10 C-9.33 9.01 -9.66 8.02 -10 7 C-6.25 4 -6.25 4 -4 4 C-4 3.34 -4 2.68 -4 2 C-2.68 1.34 -1.36 0.68 0 0 Z " fill="#D7A571" transform="translate(222,37)"/>
<path d="M0 0 C0.33 1.98 0.66 3.96 1 6 C-1.31 6.66 -3.62 7.32 -6 8 C-6 5.69 -6 3.38 -6 1 C-4 0 -4 0 0 0 Z " fill="#F5B871" transform="translate(254,17)"/>
<path d="M0 0 C0 0.66 0 1.32 0 2 C-5.61 2 -11.22 2 -17 2 C-17 1.34 -17 0.68 -17 0 C-5.47835991 -2.66514806 -5.47835991 -2.66514806 0 0 Z " fill="#C08E66" transform="translate(343,398)"/>
<path d="M0 0 C0.66 0.99 1.32 1.98 2 3 C0.68 3.33 -0.64 3.66 -2 4 C-2.12375 4.639375 -2.2475 5.27875 -2.375 5.9375 C-2.58125 6.618125 -2.7875 7.29875 -3 8 C-5.70879335 9.35439668 -8.00933268 9.06501451 -11 9 C-7.56638098 5.36440339 -4.2026393 2.63886654 0 0 Z " fill="#DEB075" transform="translate(104,219)"/>
<path d="M0 0 C-0.99 0.33 -1.98 0.66 -3 1 C-3 1.66 -3 2.32 -3 3 C-4.53125 4.2890625 -4.53125 4.2890625 -6.5 5.625 C-7.1496875 6.07101563 -7.799375 6.51703125 -8.46875 6.9765625 C-8.9740625 7.31429687 -9.479375 7.65203125 -10 8 C-10.66 7.67 -11.32 7.34 -12 7 C-11.38722388 4.03824877 -10.74627478 2.61941217 -9 0 C-5.52176885 -1.15941038 -3.54104422 -0.70820884 0 0 Z " fill="#C98E58" transform="translate(177,212)"/>
<path d="M0 0 C1.81618856 1.11903546 3.62785526 2.24541284 5.4375 3.375 C6.95150391 4.31472656 6.95150391 4.31472656 8.49609375 5.2734375 C11 7 11 7 12 9 C10.39272673 8.77082032 8.78912584 8.51579198 7.1875 8.25 C6.29417969 8.11078125 5.40085937 7.9715625 4.48046875 7.828125 C1.45046366 6.81653275 0.48025195 5.80468791 -1 3 C-0.67 2.01 -0.34 1.02 0 0 Z " fill="#BC8651" transform="translate(334,73)"/>
<path d="M0 0 C0.33 0.99 0.66 1.98 1 3 C-3.455 5.97 -3.455 5.97 -8 9 C-8.33 8.01 -8.66 7.02 -9 6 C-8.34 6 -7.68 6 -7 6 C-7.33 5.01 -7.66 4.02 -8 3 C-4.93882432 0.37613513 -4.26826873 0 0 0 Z " fill="#CD915D" transform="translate(236,69)"/>
<path d="M0 0 C1.3921875 0.3403125 1.3921875 0.3403125 2.8125 0.6875 C-0.46458863 4.35783927 -3.90272208 6.38031189 -8.1875 8.6875 C-8.1875 7.0375 -8.1875 5.3875 -8.1875 3.6875 C-7.5275 3.3575 -6.8675 3.0275 -6.1875 2.6875 C-5.56875 1.883125 -5.56875 1.883125 -4.9375 1.0625 C-3.1875 -0.3125 -3.1875 -0.3125 0 0 Z " fill="#CE985E" transform="translate(75.1875,282.3125)"/>
<path d="M0 0 C0.66 0.33 1.32 0.66 2 1 C1.02629214 4.60271909 0.3100846 5.79777091 -2.875 7.875 C-6 9 -6 9 -10 8 C-6.7 5.36 -3.4 2.72 0 0 Z " fill="#C59B70" transform="translate(195,153)"/>
<path d="M0 0 C-2.64960955 3.63094642 -5.01824456 5.89851796 -9 8 C-9 4.26414791 -8.95542188 2.98459129 -7 0 C-3.86650268 -1.04449911 -3.01031744 -0.93423645 0 0 Z " fill="#F6BB70" transform="translate(244,123)"/>
<path d="M0 0 C0.66 0 1.32 0 2 0 C4.35119399 3.52679099 4.21443452 5.02879485 4.125 9.1875 C4.10695313 10.27417969 4.08890625 11.36085937 4.0703125 12.48046875 C4.03550781 13.72763672 4.03550781 13.72763672 4 15 C3.34 15 2.68 15 2 15 C1.92652344 13.98679688 1.92652344 13.98679688 1.8515625 12.953125 C1.77679688 12.06109375 1.70203125 11.1690625 1.625 10.25 C1.55539062 9.36828125 1.48578125 8.4865625 1.4140625 7.578125 C1.00149945 5.00933618 0.28839043 3.24158985 -1 1 C-0.67 0.67 -0.34 0.34 0 0 Z " fill="#BC916A" transform="translate(441,193)"/>
<path d="M0 0 C0.66 0 1.32 0 2 0 C3.14819277 5.8685408 2.77313045 11.0885256 2 17 C1.34 17 0.68 17 0 17 C0 11.39 0 5.78 0 0 Z " fill="#D9AC7E" transform="translate(285,280)"/>
<path d="M0 0 C2.97 0.99 5.94 1.98 9 3 C8.67 3.99 8.34 4.98 8 6 C4.4375 7.1875 4.4375 7.1875 1 8 C0.17361624 5.10765685 0 3.11257569 0 0 Z " fill="#FAB370" transform="translate(392,119)"/>
<path d="M0 0 C2.64 0 5.28 0 8 0 C9.4606285 2.64738916 10 3.89448334 10 7 C8.68 6.67 7.36 6.34 6 6 C6 5.34 6 4.68 6 4 C4.02 3.34 2.04 2.68 0 2 C0 1.34 0 0.68 0 0 Z " fill="#FCAD68" transform="translate(254,56)"/>
<path d="M0 0 C-1.6875 2.0625 -1.6875 2.0625 -4 4 C-6.75 3.75 -6.75 3.75 -9 3 C-8.67 1.68 -8.34 0.36 -8 -1 C-4.59745511 -2.2151946 -3.06748874 -1.86240388 0 0 Z " fill="#DF9D63" transform="translate(245,162)"/>
<path d="M0 0 C0.8353125 0.37125 0.8353125 0.37125 1.6875 0.75 C0.3675 2.07 -0.9525 3.39 -2.3125 4.75 C-1.9825 5.41 -1.6525 6.07 -1.3125 6.75 C-2.6325 7.08 -3.9525 7.41 -5.3125 7.75 C-5.9725 6.43 -6.6325 5.11 -7.3125 3.75 C-2.88173077 -0.31153846 -2.88173077 -0.31153846 0 0 Z " fill="#FBBF7B" transform="translate(202.3125,151.25)"/>
<path d="M0 0 C2.81296623 1.40648311 4.5330209 2.98807877 6.625 5.3125 C4.975 5.9725 3.325 6.6325 1.625 7.3125 C0.965 6.6525 0.305 5.9925 -0.375 5.3125 C-0.375 3.9925 -0.375 2.6725 -0.375 1.3125 C-1.695 0.9825 -3.015 0.6525 -4.375 0.3125 C-2.375 -0.6875 -2.375 -0.6875 0 0 Z " fill="#B07A47" transform="translate(254.375,15.6875)"/>
<path d="M0 0 C3.96 0.33 7.92 0.66 12 1 C12.33 1.99 12.66 2.98 13 4 C12 5 12 5 8.4375 5.0625 C7.303125 5.041875 6.16875 5.02125 5 5 C5.33 4.34 5.66 3.68 6 3 C4.02 2.34 2.04 1.68 0 1 C0 0.67 0 0.34 0 0 Z " fill="#F69D67" transform="translate(435,441)"/>
<path d="M0 0 C6.12524001 1.47850621 8.14097427 3.09799434 12 8 C9 8 9 8 6.625 6.5 C3.76399735 4.86514134 2.23056872 4.72309411 -1 5 C-0.67 3.35 -0.34 1.7 0 0 Z " fill="#F9B46B" transform="translate(337,177)"/>
<path d="M0 0 C0.99 0.33 1.98 0.66 3 1 C2.67 1.66 2.34 2.32 2 3 C1.34 3 0.68 3 0 3 C0 3.66 0 4.32 0 5 C-0.66 5 -1.32 5 -2 5 C-2 10.61 -2 16.22 -2 22 C-2.33 22 -2.66 22 -3 22 C-3.05791844 18.87507749 -3.09356746 15.75029234 -3.125 12.625 C-3.14175781 11.73554688 -3.15851562 10.84609375 -3.17578125 9.9296875 C-3.18222656 9.07890625 -3.18867187 8.228125 -3.1953125 7.3515625 C-3.20578613 6.56604004 -3.21625977 5.78051758 -3.22705078 4.97119141 C-2.93622698 2.44634044 -1.73486019 1.73486019 0 0 Z " fill="#C1895E" transform="translate(64,290)"/>
<path d="M0 0 C1.4540625 0.0309375 1.4540625 0.0309375 2.9375 0.0625 C2.6075 2.7025 2.2775 5.3425 1.9375 8.0625 C-0.0625 5.0625 -0.0625 5.0625 -1.0625 3.0625 C-2.7125 3.7225 -4.3625 4.3825 -6.0625 5.0625 C-3.64893617 0.07446809 -3.64893617 0.07446809 0 0 Z " fill="#A77C54" transform="translate(118.0625,252.9375)"/>
<path d="M0 0 C-0.33 0.99 -0.66 1.98 -1 3 C-1.66 3 -2.32 3 -3 3 C-3.33 3.99 -3.66 4.98 -4 6 C-7.5625 7.1875 -7.5625 7.1875 -11 8 C-11 7.34 -11 6.68 -11 6 C-9.68 5.34 -8.36 4.68 -7 4 C-7 3.01 -7 2.02 -7 1 C-4.50935112 0.31292445 -2.62113708 0 0 0 Z " fill="#FAB96F" transform="translate(192,161)"/>
<path d="M0 0 C0.66 0.99 1.32 1.98 2 3 C-2.29833361 6.14512215 -5.82069003 7.75696561 -11 9 C-7.56638098 5.36440339 -4.2026393 2.63886654 0 0 Z " fill="#AD8A66" transform="translate(208,144)"/>
<path d="M0 0 C4.455 2.97 4.455 2.97 9 6 C8.34 7.65 7.68 9.3 7 11 C5 10 5 10 4.0625 7.625 C3.00320509 5.00791846 1.9948957 3.90421862 0 2 C0 1.34 0 0.68 0 0 Z " fill="#C38A4F" transform="translate(282,133)"/>
<path d="M0 0 C1.72526042 1.07421875 3.45052083 2.1484375 5.17578125 3.22265625 C3.85578125 4.21265625 2.53578125 5.20265625 1.17578125 6.22265625 C-3.69921875 3.59765625 -3.69921875 3.59765625 -4.82421875 0.22265625 C-1.82421875 -0.77734375 -1.82421875 -0.77734375 0 0 Z " fill="#CD9458" transform="translate(402.82421875,122.77734375)"/>
<path d="M0 0 C2.76276177 0.52268466 5.3260876 1.10869587 8 2 C8 2.99 8 3.98 8 5 C8.99 5.33 9.98 5.66 11 6 C11 6.66 11 7.32 11 8 C9.68 8 8.36 8 7 8 C7 7.34 7 6.68 7 6 C6.01 6 5.02 6 4 6 C3.67 5.01 3.34 4.02 3 3 C2.01 2.67 1.02 2.34 0 2 C0 1.34 0 0.68 0 0 Z " fill="#F8B166" transform="translate(338,80)"/>
<path d="M0 0 C0.33 0.66 0.66 1.32 1 2 C1.66 2 2.32 2 3 2 C3 2.66 3 3.32 3 4 C2.34 4 1.68 4 1 4 C0.67 4.66 0.34 5.32 0 6 C-0.598125 5.79375 -1.19625 5.5875 -1.8125 5.375 C-4.28450846 4.69328085 -4.28450846 4.69328085 -7 7 C-6.67 5.35 -6.34 3.7 -6 2 C-4.02 1.34 -2.04 0.68 0 0 Z " fill="#F6B876" transform="translate(185,66)"/>
<path d="M0 0 C0.33 1.65 0.66 3.3 1 5 C0.113125 5.144375 -0.77375 5.28875 -1.6875 5.4375 C-4.47117646 5.91019978 -7.23483757 6.43070185 -10 7 C-3.18421053 0 -3.18421053 0 0 0 Z " fill="#D0A375" transform="translate(197,56)"/>
<path d="M0 0 C3.3 0.33 6.6 0.66 10 1 C9.01 1.495 9.01 1.495 8 2 C8 2.66 8 3.32 8 4 C5.75 4.6875 5.75 4.6875 3 5 C0.6875 3.5625 0.6875 3.5625 -1 2 C-0.67 1.34 -0.34 0.68 0 0 Z " fill="#FBB673" transform="translate(341,217)"/>
<path d="M0 0 C0.33 0 0.66 0 1 0 C1.05437607 1.58294782 1.09296271 3.16644256 1.125 4.75 C1.14820312 5.63171875 1.17140625 6.5134375 1.1953125 7.421875 C0.99139502 10.1135858 0.36551721 11.69904974 -1 14 C-2.32 13.67 -3.64 13.34 -5 13 C-4.01 12.67 -3.02 12.34 -2 12 C-1.855625 10.7625 -1.71125 9.525 -1.5625 8.25 C-1.21311498 5.43495501 -0.79620634 2.7298503 0 0 Z " fill="#BE8B5A" transform="translate(120,198)"/>
<path d="M0 0 C0.99 0.33 1.98 0.66 3 1 C2.06725891 2.12894876 1.12859878 3.25300876 0.1875 4.375 C-0.33457031 5.00148437 -0.85664063 5.62796875 -1.39453125 6.2734375 C-3 8 -3 8 -6 10 C-6.33 9.01 -6.66 8.02 -7 7 C-6.34 7 -5.68 7 -5 7 C-4.9175 6.401875 -4.835 5.80375 -4.75 5.1875 C-3.77590452 2.34638817 -2.59505753 1.45017921 0 0 Z " fill="#D9A472" transform="translate(162,177)"/>
<path d="M0 0 C-1.44518781 3.3721049 -3.12350453 5.69880363 -6 8 C-8.75 8.25 -8.75 8.25 -11 8 C-3.28571429 0 -3.28571429 0 0 0 Z " fill="#C79A6B" transform="translate(237,124)"/>
<path d="M0 0 C1.11375 0.598125 2.2275 1.19625 3.375 1.8125 C4.00148438 2.14894531 4.62796875 2.48539063 5.2734375 2.83203125 C7 4 7 4 9 7 C5.86650268 8.04449911 5.01031744 7.93423645 2 7 C1.34 4.69 0.68 2.38 0 0 Z " fill="#BD854F" transform="translate(292,43)"/>
<path d="M0 0 C-2.75520215 2.95929119 -5.46627288 5.03681826 -9 7 C-9 5.35 -9 3.7 -9 2 C-3.375 -1.125 -3.375 -1.125 0 0 Z " fill="#B88859" transform="translate(99,268)"/>
<path d="M0 0 C1.5625 1.25 1.5625 1.25 3 3 C2.6875 5.1875 2.6875 5.1875 2 7 C-4.875 3.25 -4.875 3.25 -6 1 C-4.68 1 -3.36 1 -2 1 C-1.34 0.67 -0.68 0.34 0 0 Z " fill="#C99661" transform="translate(323,202)"/>
<path d="M0 0 C4.43458973 1.3937282 6.87378374 3.60582235 10 7 C5.18569279 7.56638908 2.79692186 5.82561627 -1 3 C-0.67 2.01 -0.34 1.02 0 0 Z " fill="#BF8D51" transform="translate(391,115)"/>
<path d="M0 0 C2.64 0.33 5.28 0.66 8 1 C8 1.99 8 2.98 8 4 C8.66 4 9.32 4 10 4 C10 4.66 10 5.32 10 6 C10.66 6 11.32 6 12 6 C12.33 6.99 12.66 7.98 13 9 C12.34 9 11.68 9 11 9 C11 8.34 11 7.68 11 7 C10.29875 6.7525 9.5975 6.505 8.875 6.25 C5.61912106 4.83440046 2.87631441 3.07362202 0 1 C0 0.67 0 0.34 0 0 Z " fill="#AD835B" transform="translate(274,75)"/>
<path d="M0 0 C0.99 0.33 1.98 0.66 3 1 C3 7.6 3 14.2 3 21 C2.67 21 2.34 21 2 21 C1.93941406 20.07058594 1.87882812 19.14117187 1.81640625 18.18359375 C1.20428448 9.05853115 1.20428448 9.05853115 0 0 Z " fill="#CE995E" transform="translate(389,211)"/>
<path d="M0 0 C0.33 1.98 0.66 3.96 1 6 C-0.65 6 -2.3 6 -4 6 C-4 5.34 -4 4.68 -4 4 C-4.99 3.34 -5.98 2.68 -7 2 C-4 0 -4 0 0 0 Z " fill="#FAB571" transform="translate(286,137)"/>
<path d="M0 0 C0.66 0.33 1.32 0.66 2 1 C2 1.99 2 2.98 2 4 C-1.37362154 6.60250805 -3.76907828 7.36265043 -8 7 C-5.4837822 4.39391727 -2.94865641 2.10618315 0 0 Z " fill="#C2996B" transform="translate(91,228)"/>
<path d="M0 0 C1.98 0 3.96 0 6 0 C6 0.99 6 1.98 6 3 C7.98 3.66 9.96 4.32 12 5 C10.02 5.99 10.02 5.99 8 7 C6.66382648 6.02471263 5.3311249 5.04466681 4 4.0625 C3.2575 3.51722656 2.515 2.97195312 1.75 2.41015625 C1.1725 1.94480469 0.595 1.47945312 0 1 C0 0.67 0 0.34 0 0 Z " fill="#C09064" transform="translate(384,154)"/>
<path d="M0 0 C1.65 0 3.3 0 5 0 C5.66 1.65 6.32 3.3 7 5 C6.01 5.33 5.02 5.66 4 6 C1.3125 4.5625 1.3125 4.5625 -1 3 C-0.67 2.01 -0.34 1.02 0 0 Z " fill="#E2AB6A" transform="translate(330,210)"/>
<path d="M0 0 C0.433125 0.474375 0.86625 0.94875 1.3125 1.4375 C3.02309613 3.23686957 3.02309613 3.23686957 6 4 C7.6875 6.0625 7.6875 6.0625 9 8 C8.01 8.495 8.01 8.495 7 9 C3.7 6.69 0.4 4.38 -3 2 C-2.01 1.34 -1.02 0.68 0 0 Z " fill="#C99D71" transform="translate(284,176)"/>
<path d="M0 0 C0.53625 0.37125 1.0725 0.7425 1.625 1.125 C0.84125 1.434375 0.0575 1.74375 -0.75 2.0625 C-3.29830128 3.05375038 -3.29830128 3.05375038 -5.375 4.125 C-5.375 3.465 -5.375 2.805 -5.375 2.125 C-7.355 3.115 -7.355 3.115 -9.375 4.125 C-9.045 3.135 -8.715 2.145 -8.375 1.125 C-3.33298319 -1.22794118 -3.33298319 -1.22794118 0 0 Z " fill="#FAB56F" transform="translate(134.375,107.875)"/>
<path d="M0 0 C3.45925163 1.2491742 6.14693203 2.67527795 9 5 C7.02 5.99 5.04 6.98 3 8 C2.87625 7.360625 2.7525 6.72125 2.625 6.0625 C2.315625 5.0415625 2.315625 5.0415625 2 4 C1.34 3.67 0.68 3.34 0 3 C0 2.01 0 1.02 0 0 Z " fill="#D29159" transform="translate(177,104)"/>
<path d="M0 0 C2.97 1.65 5.94 3.3 9 5 C9 5.66 9 6.32 9 7 C9.66 7.33 10.32 7.66 11 8 C10.01 8 9.02 8 8 8 C8 7.34 8 6.68 8 6 C6.35 6 4.7 6 3 6 C3 5.34 3 4.68 3 4 C1.68 3.67 0.36 3.34 -1 3 C-0.67 2.01 -0.34 1.02 0 0 Z " fill="#B07D4A" transform="translate(346,82)"/>
<path d="M0 0 C2.73058469 1.04404709 4.1850125 2.66465669 6.125 4.8125 C5.465 5.4725 4.805 6.1325 4.125 6.8125 C3.361875 6.19375 2.59875 5.575 1.8125 4.9375 C-0.87125809 2.75652948 -0.87125809 2.75652948 -3.875 0.8125 C-1.875 -0.1875 -1.875 -0.1875 0 0 Z " fill="#C3895F" transform="translate(255.875,58.1875)"/>
<path d="M0 0 C-0.375 2.4375 -0.375 2.4375 -1 5 C-1.99 5.495 -1.99 5.495 -3 6 C-5.125 5.0625 -5.125 5.0625 -7 4 C-3.375 0 -3.375 0 0 0 Z " fill="#E8B776" transform="translate(247,21)"/>
<path d="M0 0 C2.125 0.9375 2.125 0.9375 4 2 C3.67 3.65 3.34 5.3 3 7 C2.67 6.34 2.34 5.68 2 5 C-0.02463255 4.34786708 -0.02463255 4.34786708 -2 4 C-2 3.01 -2 2.02 -2 1 C-1.34 0.67 -0.68 0.34 0 0 Z " fill="#FBB26B" transform="translate(269,161)"/>
<path d="M0 0 C0.66 0.33 1.32 0.66 2 1 C2 1.99 2 2.98 2 4 C0.35 3.67 -1.3 3.34 -3 3 C-2.01 2.01 -1.02 1.02 0 0 Z M0 4 C0.66 4.66 1.32 5.32 2 6 C1.34 7.32 0.68 8.64 0 10 C-0.99 9.34 -1.98 8.68 -3 8 C-2.01 6.68 -1.02 5.36 0 4 Z " fill="#DFA768" transform="translate(223,133)"/>
<path d="M0 0 C0.66 0.33 1.32 0.66 2 1 C0 3 0 3 -2 4.4375 C-4.23890622 6.01799978 -4.23890622 6.01799978 -6 9 C-7.32 9 -8.64 9 -10 9 C-10 8.34 -10 7.68 -10 7 C-7.8125 5.2734375 -7.8125 5.2734375 -5 3.375 C-4.071875 2.74335937 -3.14375 2.11171875 -2.1875 1.4609375 C-1.1046875 0.73777344 -1.1046875 0.73777344 0 0 Z " fill="#987857" transform="translate(153,86)"/>
<path d="M0 0 C0.66 0.33 1.32 0.66 2 1 C0.375 4 0.375 4 -2 7 C-5.25 7.375 -5.25 7.375 -8 7 C-5.42215154 4.35247996 -3.08351902 2.05567935 0 0 Z " fill="#D1A56F" transform="translate(113,212)"/>
<path d="M0 0 C4.28477792 2.30718811 7.72291137 4.32966073 11 8 C8 8 8 8 6 7 C6 6.34 6 5.68 6 5 C4.68 5 3.36 5 2 5 C1.34 3.35 0.68 1.7 0 0 Z " fill="#AD7A4D" transform="translate(408,127)"/>
<path d="M0 0 C4.06815373 1.84916079 7.0094833 3.66442368 10 7 C8.68 7 7.36 7 6 7 C6 6.34 6 5.68 6 5 C3.69 4.34 1.38 3.68 -1 3 C-0.67 2.01 -0.34 1.02 0 0 Z " fill="#A57144" transform="translate(307,54)"/>
<path d="M0 0 C0.99 0 1.98 0 3 0 C3 0.99 3 1.98 3 3 C3.66 3.33 4.32 3.66 5 4 C5.33 4.66 5.66 5.32 6 6 C3.69 5.67 1.38 5.34 -1 5 C-0.67 3.35 -0.34 1.7 0 0 Z " fill="#FAB673" transform="translate(354,224)"/>
<path d="M0 0 C4.7517398 0.43197635 6.92000054 1.32769295 10 5 C9.01 5.495 9.01 5.495 8 6 C8 5.34 8 4.68 8 4 C7.05125 4.020625 6.1025 4.04125 5.125 4.0625 C2 4 2 4 0 3 C0 2.01 0 1.02 0 0 Z " fill="#D39858" transform="translate(371,200)"/>
<path d="M0 0 C0.66 1.98 1.32 3.96 2 6 C0.35 6.33 -1.3 6.66 -3 7 C-3 4 -3 4 -2 3 C-2.99 2.34 -3.98 1.68 -5 1 C-3 0 -3 0 0 0 Z " fill="#D19756" transform="translate(255,112)"/>
<path d="M0 0 C0 1.65 0 3.3 0 5 C-1.98 5.99 -1.98 5.99 -4 7 C-4.66 6.34 -5.32 5.68 -6 5 C-1.125 0 -1.125 0 0 0 Z " fill="#D5A872" transform="translate(178,69)"/>
<path d="M0 0 C4.43458973 1.3937282 6.87378374 3.60582235 10 7 C8.51515588 6.60404157 7.0371169 6.18249294 5.5625 5.75 C4.73878906 5.51796875 3.91507812 5.2859375 3.06640625 5.046875 C1 4 1 4 0.21484375 1.890625 C0.14394531 1.26671875 0.07304687 0.6428125 0 0 Z " fill="#9F6B3E" transform="translate(265,24)"/>
<path d="M0 0 C6.875 3.75 6.875 3.75 8 6 C5.69 5.67 3.38 5.34 1 5 C0.67 3.35 0.34 1.7 0 0 Z " fill="#AF804F" transform="translate(426,140)"/>
<path d="M0 0 C0.33 1.32 0.66 2.64 1 4 C-3.455 5.485 -3.455 5.485 -8 7 C-5.42215154 4.35247996 -3.08351902 2.05567935 0 0 Z " fill="#B39169" transform="translate(163,79)"/>
<path d="M0 0 C-4.455 2.97 -4.455 2.97 -9 6 C-9 5.01 -9 4.02 -9 3 C-8.34 2.67 -7.68 2.34 -7 2 C-7 1.34 -7 0.68 -7 0 C-4 -1 -4 -1 0 0 Z " fill="#AD7F57" transform="translate(252,61)"/>
<path d="M0 0 C0.33 0.66 0.66 1.32 1 2 C-0.32 2.33 -1.64 2.66 -3 3 C-3 3.66 -3 4.32 -3 5 C-5.31 5.66 -7.62 6.32 -10 7 C-6.87378374 3.60582235 -4.43458973 1.3937282 0 0 Z " fill="#D5B081" transform="translate(74,242)"/>
<path d="M0 0 C1.65 0.33 3.3 0.66 5 1 C2.11912454 3.40072955 -0.56404834 5.47291037 -4 7 C-3.67 5.68 -3.34 4.36 -3 3 C-1.68 3 -0.36 3 1 3 C0.67 2.01 0.34 1.02 0 0 Z " fill="#A67752" transform="translate(208,185)"/>
<path d="M0 0 C3.465 1.98 3.465 1.98 7 4 C7 4.99 7 5.98 7 7 C6.67 6.34 6.34 5.68 6 5 C2.97065509 4.34227572 2.97065509 4.34227572 0 4 C0 2.68 0 1.36 0 0 Z " fill="#AD7E4F" transform="translate(294,142)"/>
<path d="M0 0 C0.33 0 0.66 0 1 0 C1 2.64 1 5.28 1 8 C-0.875 8.625 -0.875 8.625 -3 9 C-3.66 8.34 -4.32 7.68 -5 7 C-3.35 6.34 -1.7 5.68 0 5 C0 3.35 0 1.7 0 0 Z " fill="#FAB879" transform="translate(390,391)"/>
<path d="M0 0 C0.66 0.33 1.32 0.66 2 1 C1.34 3.64 0.68 6.28 0 9 C-0.33 7.68 -0.66 6.36 -1 5 C-2.65 5.33 -4.3 5.66 -6 6 C-4 4 -2 2 0 0 Z " fill="#CE9562" transform="translate(150,229)"/>
<path d="M0 0 C2.76276177 0.52268466 5.3260876 1.10869587 8 2 C8.33 2.99 8.66 3.98 9 5 C4.68607774 4.5206753 2.83430453 3.2542015 0 0 Z " fill="#BE8C64" transform="translate(263,164)"/>
<path d="M0 0 C2.9719385 1.12451727 5.33440687 2.22293791 8 4 C7.67 4.66 7.34 5.32 7 6 C4.03 5.505 4.03 5.505 1 5 C0.67 3.35 0.34 1.7 0 0 Z " fill="#AB7D50" transform="translate(313,156)"/>
<path d="M0 0 C0.33 1.32 0.66 2.64 1 4 C-2 6 -2 6 -5 6 C-5 5.01 -5 4.02 -5 3 C-2.5 1.3125 -2.5 1.3125 0 0 Z " fill="#D3A774" transform="translate(214,140)"/>
<path d="M0 0 C2.875 -0.1875 2.875 -0.1875 6 0 C8 3 8 3 8 6 C7.34 6 6.68 6 6 6 C6 5.34 6 4.68 6 4 C5.195625 3.71125 4.39125 3.4225 3.5625 3.125 C1 2 1 2 0 0 Z " fill="#BD8C61" transform="translate(365,140)"/>
<path d="M0 0 C3.55780196 0.60990891 6.6828589 1.5783681 10 3 C9.01 3.495 9.01 3.495 8 4 C7.67 4.66 7.34 5.32 7 6 C5.83054208 5.19152271 4.66449539 4.37810888 3.5 3.5625 C2.8503125 3.11003906 2.200625 2.65757813 1.53125 2.19140625 C1.0259375 1.79824219 0.520625 1.40507813 0 1 C0 0.67 0 0.34 0 0 Z " fill="#C08D62" transform="translate(341,123)"/>
<path d="M0 0 C1.65 0.33 3.3 0.66 5 1 C5 1.66 5 2.32 5 3 C3.35 3.66 1.7 4.32 0 5 C-0.99 4.01 -1.98 3.02 -3 2 C-2.01 2 -1.02 2 0 2 C0 1.34 0 0.68 0 0 Z " fill="#D9995F" transform="translate(311,97)"/>
<path d="M0 0 C1.2065625 0.0309375 1.2065625 0.0309375 2.4375 0.0625 C2.1875 1.9375 2.1875 1.9375 1.4375 4.0625 C-0.625 5.3125 -0.625 5.3125 -2.5625 6.0625 C-2.94468767 4.40635343 -3.27645102 2.73792976 -3.5625 1.0625 C-2.5625 0.0625 -2.5625 0.0625 0 0 Z " fill="#FCAF6B" transform="translate(211.5625,81.9375)"/>
<path d="M0 0 C3.93673644 1.31224548 6.22719294 2.91910327 9 6 C8.01 6.33 7.02 6.66 6 7 C5.67 6.01 5.34 5.02 5 4 C3.35 4 1.7 4 0 4 C0 2.68 0 1.36 0 0 Z " fill="#AA784B" transform="translate(325,67)"/>
<path d="M0 0 C2.475 0.99 2.475 0.99 5 2 C4.01 2.495 4.01 2.495 3 3 C3 3.99 3 4.98 3 6 C2.34 6 1.68 6 1 6 C0.67 6.66 0.34 7.32 0 8 C0 5.36 0 2.72 0 0 Z " fill="#F9B46C" transform="translate(304,56)"/>
<path d="M0 0 C2 1 2 1 3 3 C1.68 3.99 0.36 4.98 -1 6 C-2.32 5.34 -3.64 4.68 -5 4 C-3.35 2.68 -1.7 1.36 0 0 Z " fill="#CB9E69" transform="translate(239,24)"/>
<path d="M0 0 C4.29 0 8.58 0 13 0 C12 2 12 2 10.203125 2.68359375 C6.52996534 3.211122 3.54225625 2.00363927 0 1 C0 0.67 0 0.34 0 0 Z " fill="#F3B575" transform="translate(344,365)"/>
<path d="M0 0 C2 1 2 1 2 1 Z M-6 1 C-4.02 1 -2.04 1 0 1 C-0.99 1.495 -0.99 1.495 -2 2 C-2 2.66 -2 3.32 -2 4 C-3.65 3.67 -5.3 3.34 -7 3 C-6.67 2.34 -6.34 1.68 -6 1 Z " fill="#F9BC76" transform="translate(99,227)"/>
<path d="M0 0 C2.31 0.33 4.62 0.66 7 1 C5.3545622 2.68762851 3.68711423 4.3540349 2 6 C1.67 6 1.34 6 1 6 C0.67 4.02 0.34 2.04 0 0 Z " fill="#BB8253" transform="translate(180,203)"/>
<path d="M0 0 C0 0.66 0 1.32 0 2 C-1.98 2.66 -3.96 3.32 -6 4 C-6.66 3.01 -7.32 2.02 -8 1 C-4.93251126 -0.86240388 -3.40254489 -1.2151946 0 0 Z " fill="#D69963" transform="translate(431,181)"/>
<path d="M0 0 C0.66 0.33 1.32 0.66 2 1 C1.67 1.33 1.34 1.66 1 2 C1.66 2.66 2.32 3.32 3 4 C2.34 4.66 1.68 5.32 1 6 C0.01 6 -0.98 6 -2 6 C-2 5.34 -2 4.68 -2 4 C-2.66 3.67 -3.32 3.34 -4 3 C-2.68 2.01 -1.36 1.02 0 0 Z " fill="#C89D64" transform="translate(174,168)"/>
<path d="M0 0 C4.875 1.75 4.875 1.75 6 4 C4.02 4.33 2.04 4.66 0 5 C-0.5625 3.0625 -0.5625 3.0625 -1 1 C-0.67 0.67 -0.34 0.34 0 0 Z " fill="#CE9658" transform="translate(321,162)"/>
<path d="M0 0 C1.32 0 2.64 0 4 0 C3.67 1.32 3.34 2.64 3 4 C1.35 4 -0.3 4 -2 4 C-1.34 2.68 -0.68 1.36 0 0 Z " fill="#FBB56C" transform="translate(162,83)"/>
<path d="M0 0 C0 1.32 0 2.64 0 4 C-1.98 4 -3.96 4 -6 4 C-5.67 3.01 -5.34 2.02 -5 1 C-3 0 -3 0 0 0 Z " fill="#FBB06A" transform="translate(406,160)"/>
<path d="M0 0 C3.057952 1.73559438 5.63379989 3.38472619 8 6 C6.68 6.33 5.36 6.66 4 7 C3.34 5.35 2.68 3.7 2 2 C1.34 2 0.68 2 0 2 C0 1.34 0 0.68 0 0 Z " fill="#B27B48" transform="translate(440,150)"/>
<path d="M0 0 C2.97 1.65 5.94 3.3 9 5 C8.67 5.66 8.34 6.32 8 7 C6.02 6.34 4.04 5.68 2 5 C2 4.01 2 3.02 2 2 C1.34 2 0.68 2 0 2 C0 1.34 0 0.68 0 0 Z " fill="#977041" transform="translate(357,90)"/>
<path d="M0 0 C1.32 0 2.64 0 4 0 C4 0.66 4 1.32 4 2 C6.31 2.66 8.62 3.32 11 4 C9.02 4.99 9.02 4.99 7 6 C5.83054208 5.19152271 4.66449539 4.37810888 3.5 3.5625 C2.8503125 3.11003906 2.200625 2.65757813 1.53125 2.19140625 C1.0259375 1.79824219 0.520625 1.40507813 0 1 C0 0.67 0 0.34 0 0 Z " fill="#BA8F66" transform="translate(291,87)"/>
<path d="M0 0 C0.33 1.32 0.66 2.64 1 4 C-0.32 4.99 -1.64 5.98 -3 7 C-3.33 5.68 -3.66 4.36 -4 3 C-2.68 2.01 -1.36 1.02 0 0 Z " fill="#BB9057" transform="translate(58,252)"/>
<path d="M0 0 C0.66 0.33 1.32 0.66 2 1 C2 1.99 2 2.98 2 4 C-0.31 4.33 -2.62 4.66 -5 5 C-3.35 3.35 -1.7 1.7 0 0 Z " fill="#B58B64" transform="translate(81,235)"/>
<path d="M0 0 C0.66 0.99 1.32 1.98 2 3 C-0.35438733 4.42944945 -1.48032433 5.08661261 -4.25 4.625 C-4.8275 4.41875 -5.405 4.2125 -6 4 C-4.02 2.68 -2.04 1.36 0 0 Z " fill="#C59B6B" transform="translate(104,219)"/>
<path d="M0 0 C2.475 0.99 2.475 0.99 5 2 C5 2.66 5 3.32 5 4 C4.34 4 3.68 4 3 4 C2.67 4.66 2.34 5.32 2 6 C1.01 5.01 0.02 4.02 -1 3 C-0.67 2.01 -0.34 1.02 0 0 Z " fill="#F9B975" transform="translate(318,199)"/>
<path d="M0 0 C-0.33 0.99 -0.66 1.98 -1 3 C-2.65 3 -4.3 3 -6 3 C-6 2.01 -6 1.02 -6 0 C-3.50907189 -1.24546405 -2.58919267 -0.7767578 0 0 Z " fill="#F7B46B" transform="translate(358,189)"/>
<path d="M0 0 C2.31 0.66 4.62 1.32 7 2 C6.67 3.32 6.34 4.64 6 6 C6 5.34 6 4.68 6 4 C4.68 4 3.36 4 2 4 C2 3.34 2 2.68 2 2 C1.34 2 0.68 2 0 2 C0 1.34 0 0.68 0 0 Z " fill="#FBB067" transform="translate(462,170)"/>
<path d="M0 0 C3.36591866 1.44253657 5.51047079 3.33264727 8 6 C5.125 5.8125 5.125 5.8125 2 5 C0.625 2.4375 0.625 2.4375 0 0 Z " fill="#B57B48" transform="translate(448,156)"/>
<path d="M0 0 C1.32 1.32 2.64 2.64 4 4 C2.35 4.66 0.7 5.32 -1 6 C-1.042721 4.33388095 -1.04063832 2.66617115 -1 1 C-0.67 0.67 -0.34 0.34 0 0 Z " fill="#FCB46D" transform="translate(433,148)"/>
<path d="M0 0 C1.32 0.99 2.64 1.98 4 3 C2.125 4.0625 2.125 4.0625 0 5 C-0.66 4.67 -1.32 4.34 -2 4 C-2 3.01 -2 2.02 -2 1 C-1.34 0.67 -0.68 0.34 0 0 Z " fill="#FDB56F" transform="translate(274,131)"/>
<path d="M0 0 C1.98 0 3.96 0 6 0 C4.3545622 1.68762851 2.68711423 3.3540349 1 5 C0.67 5 0.34 5 0 5 C0 3.35 0 1.7 0 0 Z " fill="#AF7952" transform="translate(157,124)"/>
<path d="M0 0 C2.97 1.98 2.97 1.98 6 4 C5.67 4.66 5.34 5.32 5 6 C3.68 5.67 2.36 5.34 1 5 C0.67 3.35 0.34 1.7 0 0 Z " fill="#B28048" transform="translate(263,119)"/>
<path d="M0 0 C-0.33 0.99 -0.66 1.98 -1 3 C-4.0625 4.1875 -4.0625 4.1875 -7 5 C-5.64703851 0.94111554 -4.27479763 0 0 0 Z " fill="#BC956C" transform="translate(129,106)"/>
<path d="M0 0 C1.32 0 2.64 0 4 0 C2.75453595 3.73639216 1.36595047 4.18756513 -2 6 C-2.33 5.01 -2.66 4.02 -3 3 C-2.01 3 -1.02 3 0 3 C0 2.01 0 1.02 0 0 Z " fill="#B88559" transform="translate(188,102)"/>
<path d="M0 0 C0.66 0.33 1.32 0.66 2 1 C-1.625 5.875 -1.625 5.875 -5 7 C-4.60196439 4.11424181 -4.20990931 3.17810487 -1.9375 1.25 C-1.298125 0.8375 -0.65875 0.425 0 0 Z " fill="#AF8D67" transform="translate(203,50)"/>
<path d="M0 0 C1.2065625 0.0309375 1.2065625 0.0309375 2.4375 0.0625 C0.38963401 3.13429899 -1.29460587 4.42855294 -4.5625 6.0625 C-3.48963568 0.08511307 -3.48963568 0.08511307 0 0 Z " fill="#F9AE67" transform="translate(72.5625,280.9375)"/>
<path d="M0 0 C0.66 0 1.32 0 2 0 C2.33 1.32 2.66 2.64 3 4 C1.02 4.33 -0.96 4.66 -3 5 C-1.625 2.5 -1.625 2.5 0 0 Z " fill="#E6B47D" transform="translate(183,162)"/>
<path d="M0 0 C0 0.99 0 1.98 0 3 C-1.98 3.99 -1.98 3.99 -4 5 C-4.66 4.34 -5.32 3.68 -6 3 C-5.67 2.34 -5.34 1.68 -5 1 C-2.4375 0.375 -2.4375 0.375 0 0 Z " fill="#F2BC78" transform="translate(230,131)"/>
<path d="M0 0 C0.66 0.33 1.32 0.66 2 1 C1.67 1.99 1.34 2.98 1 4 C-1.5625 5.1875 -1.5625 5.1875 -4 6 C-3.6875 4.125 -3.6875 4.125 -3 2 C-2.01 1.34 -1.02 0.68 0 0 Z " fill="#B88F6A" transform="translate(134,100)"/>
<path d="M0 0 C1.65 0.33 3.3 0.66 5 1 C3.35 2.65 1.7 4.3 0 6 C-1.125 2.25 -1.125 2.25 0 0 Z " fill="#AD7D4E" transform="translate(194,97)"/>
<path d="M0 0 C-0.33 0.99 -0.66 1.98 -1 3 C-3.31 3.33 -5.62 3.66 -8 4 C-7.67 3.01 -7.34 2.02 -7 1 C-2.25 0 -2.25 0 0 0 Z " fill="#EFB479" transform="translate(143,98)"/>
</svg>
